<svg xmlns="http://www.w3.org/2000/svg" width="176.5" height="51.491" viewBox="0 0 176.5 51.491"><defs><style>.a{fill:#00e9c5;}</style></defs><g transform="translate(0 -0.034)"><g transform="translate(0 0.034)"><path class="a" d="M20.715.852a4.186,4.186,0,0,0-2.5,3.828h0V33.827a1.448,1.448,0,0,1-1.868,1.386A15.588,15.588,0,0,1,5.239,20.294v-.861c0-.162.021-.32.033-.483v-.129c.037-.416.1-.832.171-1.248l.025-.133c.033-.179.071-.358.108-.537a.724.724,0,0,0,.021-.092c.1-.416.212-.832.345-1.248l.025-.083c.062-.2.129-.387.2-.578h0a12.729,12.729,0,0,1,.508-1.2l.033-.067c.187-.391.387-.774.6-1.144v-.021c.1-.171.2-.337.308-.5.025-.033.046-.067.067-.1.1-.154.2-.308.308-.458l.042-.058c.117-.162.233-.325.354-.483l.112-.141a18.21,18.21,0,0,1,1.731-1.9,10.465,10.465,0,0,1,.832-.695,1.739,1.739,0,0,0,.179-2.613L9.975,4.244a1.735,1.735,0,0,0-2.314-.125A20.719,20.719,0,0,0,4.952,6.745h0l-.033.037c-.183.216-.362.416-.537.657h0c-.171.212-.333.416-.491.645L3.812,8.2c-.258.441-.562.907-.853,1.394l-.075.133c-.283.474-.545.965-.791,1.469-.025.046-.046.1-.071.146-.108.229-.216.462-.316.695l-.042.054c-.108.254-.212.512-.308.77l-.062.162c-.083.229-.166.462-.246.695l-.037.112c-.083.262-.162.528-.241.795l-.037.15c-.062.229-.121.458-.179.687a.667.667,0,0,1-.042.175c-.058.27-.117.545-.166.832v.112c-.054.237-.1.5-.129.728a1.6,1.6,0,0,1-.029.2c-.037.279-.071.558-.1.832a.682.682,0,0,0,0,.092c-.025.254-.042.508-.054.766v1.082H0A20.84,20.84,0,0,0,17.032,40.776a1.456,1.456,0,0,1,1.2,1.427v7.873a1.444,1.444,0,0,0,1.444,1.448H22a1.448,1.448,0,0,0,1.448-1.448V42.2a1.44,1.44,0,0,1,1.165-1.4,20.782,20.782,0,0,0,10.953-5.764,21.115,21.115,0,0,0,3.221-4.161A20.848,20.848,0,0,0,27.145.436a9.055,9.055,0,0,0-6.429.416ZM34.93,27.069a15.609,15.609,0,0,1-9.629,8.16,1.444,1.444,0,0,1-1.856-1.39V8.218a2.5,2.5,0,0,1,3.45-2.3A15.584,15.584,0,0,1,34.93,27.04Z" transform="translate(0 -0.034)"/><path d="M142.007,89.994a5.117,5.117,0,0,1-.791-.129,8.323,8.323,0,0,0-1.02-.062c-.233,0-.616,0-.766.212a7.155,7.155,0,0,0-.15,2.126h2.126c.47,0,.7.087.7.6v.832c0,.616-.15.807-.766.807h-2.081v6.983c0,.553-.083.957-.745.957h-1.34c-.574,0-.637-.341-.637-.832V94.4H135.9c-.466,0-.512-.358-.512-.745v-.92c0-.745.6-.6,1.153-.6v-.832a4.056,4.056,0,0,1,.549-2.5c.874-1.194,2.3-1.248,3.662-1.248.416,0,1.49,0,1.764.416a.8.8,0,0,1,.108.445v.15C142.643,88.992,142.643,89.994,142.007,89.994Zm4.361.637h-.832c-.766,0-1.128-.1-1.128-.957v-.745c0-.678.279-.936.936-.936h1a.832.832,0,0,1,.832.936v.745C147.217,90.269,147.025,90.631,146.368,90.631Zm0,11.706h-.832c-.766,0-1.128-.108-1.128-.957V93.057c0-.678.279-.936.936-.936h1a.832.832,0,0,1,.832.936v8.323C147.217,101.975,147.025,102.337,146.368,102.337Z" transform="translate(-79.049 -51.137)"/><path d="M174.69,108.657a20.7,20.7,0,0,1-3.042-.15c-.637-.083-.6-.383-.6-.978v-.383c0-.466.042-.978.616-.978a10.014,10.014,0,0,1,1.107.125c.724.067,1.469.108,2.214.108s1.065,0,1.065-.786a1.128,1.128,0,0,0-.129-.7,13.774,13.774,0,0,0-2.384-.832,12.285,12.285,0,0,1-1.211-.491,2.312,2.312,0,0,1-1.511-2.405c0-3.275,2.21-3.233,4.827-3.233.533,0,1.044,0,1.577.042.766.067,1.061.212,1.061,1.045,0,.616.046,1.319-.786,1.319-.362,0-.745-.067-1.107-.087a15.284,15.284,0,0,0-1.7-.083c-.807,0-1.248-.108-1.248.832a.633.633,0,0,0,.1.416,12.273,12.273,0,0,0,2.684.978c1.665.553,2.447,1.107,2.447,2.98C178.693,108.274,177.328,108.657,174.69,108.657Z" transform="translate(-99.736 -57.204)"/><path d="M198.625,91.238h-.807c-.766,0-1.128-.1-1.128-.957v-.745c0-.678.275-.936.936-.936h1a.832.832,0,0,1,.832.936v.745C199.478,90.876,199.287,91.238,198.625,91.238Zm0,11.706h-.807c-.766,0-1.128-.108-1.128-.957V93.664c0-.678.275-.936.936-.936h1a.832.832,0,0,1,.832.936v8.323C199.478,102.582,199.287,102.944,198.625,102.944Z" transform="translate(-114.84 -51.744)"/><path d="M216.652,108.507a17.618,17.618,0,0,1-1.81.083c-4.161,0-4.852-1.423-4.852-5.381s.7-5.41,4.852-5.41a17.663,17.663,0,0,1,1.81.1c.637.067,1.169,0,1.169.724v.042c0,.533,0,1.665-.766,1.665a5.924,5.924,0,0,1-.853-.083,15.4,15.4,0,0,0-2-.171c-.895,0-1.065.171-1.248,1a10.113,10.113,0,0,0-.171,2.131,16.714,16.714,0,0,0,.083,2.039c.087.957.416,1.065,1.344,1.065a15.722,15.722,0,0,0,2.018-.171,5.637,5.637,0,0,1,.832-.083.587.587,0,0,1,.508.212,3.966,3.966,0,0,1,.258,1.448C217.818,108.466,217.306,108.42,216.652,108.507Z" transform="translate(-122.606 -57.116)"/><path d="M242.012,108.316h-1.194c-.487,0-.616-.32-.616-.766a5.8,5.8,0,0,1-3.146,1.04c-2.081,0-3.046-1.128-3.046-3.171,0-2.318,1.386-3.1,3.471-3.329a18.214,18.214,0,0,1,2.7-.171c0-.853.129-2.043-1.065-2.043a13.541,13.541,0,0,0-3.063.445,2.151,2.151,0,0,1-.512.062c-.741,0-.616-.745-.616-1.273a.786.786,0,0,1,.6-.895,14.669,14.669,0,0,1,3.491-.416,4.123,4.123,0,0,1,3.042.978,4.97,4.97,0,0,1,.807,3.446V107.4C242.861,108.016,242.649,108.316,242.012,108.316Zm-1.81-4.49c-.341,0-.7-.042-1.04-.042a9.6,9.6,0,0,0-1.34.062c-.895.129-1.248.416-1.248,1.34,0,.512.083,1.427.786,1.427a4.852,4.852,0,0,0,2.851-1.065Z" transform="translate(-136.63 -57.116)"/><path d="M264.163,102.529h-.745c-.766,0-1.128-.108-1.128-.957V88.8c0-.682.275-.915.936-.915h.957a.807.807,0,0,1,.832.915v12.767C264.991,102.167,264.82,102.529,264.163,102.529Z" transform="translate(-153.142 -51.329)"/><path d="M281.938,108.507a17.509,17.509,0,0,1-1.81.083c-4.161,0-4.848-1.423-4.848-5.381s.7-5.41,4.848-5.41a17.536,17.536,0,0,1,1.81.1c.637.067,1.169,0,1.169.724v.042c0,.533,0,1.665-.766,1.665a5.863,5.863,0,0,1-.832-.083,15.524,15.524,0,0,0-2-.171c-.895,0-1.065.171-1.248,1a10.406,10.406,0,0,0-.171,2.131c0,.678.025,1.361.087,2.039.083.957.416,1.065,1.34,1.065a15.783,15.783,0,0,0,2.022-.171,5.587,5.587,0,0,1,.832-.083.6.6,0,0,1,.512.212,3.965,3.965,0,0,1,.254,1.448C283.108,108.466,282.6,108.42,281.938,108.507Z" transform="translate(-160.726 -57.116)"/><path d="M304.614,108.59c-3.554,0-4.894-2.043-4.894-5.381s1.319-5.41,4.894-5.41,4.873,2.043,4.873,5.41S308.188,108.59,304.614,108.59Zm1.744-7.852c-.383-.7-1.024-.678-1.744-.678s-1.365,0-1.748.678a5.462,5.462,0,0,0-.416,2.472,5.52,5.52,0,0,0,.416,2.468c.375.662,1.045.657,1.748.657s1.361,0,1.744-.657a5.432,5.432,0,0,0,.383-2.468A5.756,5.756,0,0,0,306.357,100.738Z" transform="translate(-174.996 -57.116)"/><path d="M336.5,108.316h-1.194c-.487,0-.616-.32-.616-.766a5.8,5.8,0,0,1-3.15,1.04c-2.081,0-3.042-1.128-3.042-3.171,0-2.318,1.386-3.1,3.471-3.329a18.177,18.177,0,0,1,2.7-.171c0-.853.129-2.043-1.065-2.043a13.541,13.541,0,0,0-3.063.445,2.153,2.153,0,0,1-.512.062c-.745,0-.616-.745-.616-1.273a.786.786,0,0,1,.6-.895A14.644,14.644,0,0,1,333.5,97.8a4.123,4.123,0,0,1,3.042.978,4.97,4.97,0,0,1,.807,3.446V107.4C337.351,108.016,337.139,108.316,336.5,108.316Zm-1.81-4.49c-.341,0-.7-.042-1.04-.042a9.6,9.6,0,0,0-1.34.062c-.895.129-1.248.416-1.248,1.34,0,.512.083,1.427.787,1.427a4.852,4.852,0,0,0,2.851-1.065Z" transform="translate(-191.799 -57.116)"/><path d="M362.652,108.507a17.618,17.618,0,0,1-1.81.083c-4.161,0-4.852-1.423-4.852-5.381s.7-5.41,4.852-5.41a17.662,17.662,0,0,1,1.81.1c.637.067,1.169,0,1.169.724v.042c0,.533,0,1.665-.766,1.665a5.923,5.923,0,0,1-.853-.083,15.4,15.4,0,0,0-2-.171c-.891,0-1.061.171-1.248,1a10.112,10.112,0,0,0-.171,2.131c0,.678.021,1.361.083,2.039.087.957.416,1.065,1.34,1.065a15.72,15.72,0,0,0,2.022-.171,5.638,5.638,0,0,1,.832-.083.591.591,0,0,1,.508.212,3.966,3.966,0,0,1,.258,1.448C363.83,108.466,363.318,108.42,362.652,108.507Z" transform="translate(-207.85 -57.116)"/><path d="M388.432,102.529H387.3c-.616,0-.766-.416-.766-.957V96.124c0-.3.042-1.469-.15-1.665a.883.883,0,0,0-.682-.171,4.627,4.627,0,0,0-2.593.978v6.321c0,.6-.171.957-.832.957h-1.128c-.574,0-.766-.32-.766-.832V88.8c0-.682.275-.915.936-.915h.986a.807.807,0,0,1,.832.915v3.937a6.679,6.679,0,0,1,2.871-.724c1.977,0,3.275.978,3.275,3.021v6.533C389.26,102.167,389.09,102.529,388.432,102.529Z" transform="translate(-222.09 -51.329)"/><path d="M412.973,94.235a2.742,2.742,0,0,1-2.114-.778,4,4,0,0,1,0-4.652,2.742,2.742,0,0,1,2.114-.811c2.031,0,2.971,1.074,2.971,3.071S415.054,94.235,412.973,94.235Zm1.7-4.823a1.764,1.764,0,0,0-1.619-.674,1.882,1.882,0,0,0-1.665.666,4.045,4.045,0,0,0,0,3.454,1.889,1.889,0,0,0,1.665.67,1.78,1.78,0,0,0,1.606-.678,3.858,3.858,0,0,0,0-3.437Zm-.5,3.262h-.291a.37.37,0,0,1-.329-.129l-.807-.97h-.1v.87c0,.279-.258.229-.454.229s-.262-.042-.262-.229V89.791c0-.179.1-.221.262-.221h.907a1.074,1.074,0,0,1,.853.221,1.248,1.248,0,0,1,.266.878.762.762,0,0,1-.62.861l.7.795a.308.308,0,0,1,.075.183c-.012.117-.117.15-.212.15Zm-.782-2.484a1.211,1.211,0,0,0-.329-.029h-.137c-.121,0-.279-.029-.279.133v.682h.516c.291,0,.341-.058.341-.341C413.485,90.536,413.485,90.245,413.389,90.19Z" transform="translate(-239.444 -51.387)"/></g></g></svg>