<svg xmlns="http://www.w3.org/2000/svg" xmlns:xlink="http://www.w3.org/1999/xlink" width="450" height="504" viewBox="0 0 450 504"><defs><style>.a{fill:#fff;}.b{clip-path:url(#a);}.c{fill:#1b2251;}.d{fill:#ff7d78;}.e{fill:#ff9792;}.f{fill:#c0d3f8;}.g{fill:#9e30ca;}.h{fill:#00e9c5;}.i{fill:#0065e9;}.j{fill:#050c44;}.k{fill:#b1c9f6;}.l{fill:#0bae95;}.m{fill:#242e6c;}.n{fill:#010631;}.o{fill:#f18c74;}.p{fill:#d2d2d2;}.q{fill:#00a4b7;}.r{fill:#0f2765;}.s{fill:#acd7ef;}.t{fill:#0092b1;}.u{fill:#76bfe0;}.v{fill:#22233c;}.w{fill:#f5a58e;}.x{fill:#ee7d67;}.y{fill:#161d2f;}.z{fill:#f39981;}</style><clipPath id="a"><rect class="a" width="450" height="504" transform="translate(1015 200)"/></clipPath></defs><g class="b" transform="translate(-1015 -200)"><g transform="translate(1512.916 214.533)"><path class="c" d="M1332.922,1082.563a51.943,51.943,0,0,0-.421-9.583c-3.716,9.472-8.827,14.277-12.456,16.639a6.855,6.855,0,0,1-2.613.289,38.419,38.419,0,0,1-5.755-1.882,74.321,74.321,0,0,0,10.9-11.106,54.3,54.3,0,0,1-14.748,9.26c-9.987-5.425-16.832-14.3-20.544-20.14,25.631-8.093,33.175-24.161,33.175-24.161-22.783,18.187-32.869,19.066-36.4,18.439-.045-.091-.066-.136-.066-.136,34.269-9.083,43.765-49.132,55.325-63.17s25.6-3.3,25.6-3.3S1363.426,1043.377,1332.922,1082.563Z" transform="translate(-1277.785 -988.944)"/><path class="d" d="M1462.37,1132.205s22.4,11.9,20.543,22.556c-2.964,16.994-15.443,54.043-15.443,54.043l36.432-18.148,6.515,7.86s-44.246,44.173-59.832,34.027S1462.37,1132.205,1462.37,1132.205Z" transform="translate(-1347.502 -1050.312)"/><path class="c" d="M1445.543,1005.252s-24.566-29.52-37.572-10.632c0,0-9.7,4.025-13.212,20.54-3.581,16.85,7.624,29.658,13.419,26.493,3.716-2.03,6.528,4.473,6.528,4.473Z" transform="translate(-1325.217 -988.308)"/><path class="e" d="M1447.9,1110.892c.094.042-9.031,4.78-15.894,2.9-6.456-1.76-14.639-3.925-14.55-3.943,2.734-.544,7.487-10.507,7.428-26.652l1.236.244,20.782,4.115s-.473,6.54-.487,12.7C1446.4,1105.433,1446.714,1110.34,1447.9,1110.892Z" transform="translate(-1335.294 -1029.196)"/><path class="d" d="M1453.462,1087.743s-.473,6.54-.487,12.7c-11.629-.328-17.776-10.937-20.3-16.817Z" transform="translate(-1341.854 -1029.38)"/><path class="c" d="M1423.052,1047.322s-6.095-9.63-7.557-17.864c-1.044-5.878,1.95-27.668,23.847-24.53a29.754,29.754,0,0,1,12.338,4.664c4.754,3.211,11.615,10.143,3.943,29.157l-1.992,6.423Z" transform="translate(-1334.372 -995.337)"/><path class="e" d="M1454.941,1065.958s-27.515.454-27.534-16.685-3.583-28.623,13.984-29.638,20.987,5.522,22.385,11.241S1462.1,1065.4,1454.941,1065.958Z" transform="translate(-1339.449 -1001.761)"/><path class="e" d="M1372.03,1259.254c9.649-21.639,14.265-27.758,14.426-34.566a60.124,60.124,0,0,0-.5-8.08,111.855,111.855,0,0,0-2.939-15.28h0c-.013-.046-.029-.107-.046-.177-.124-.5-.38-1.606-.7-3.192-2.635-13.047-9.661-58.661,15.573-68.211.256-.029.508-.049.751-.066,11.008-.747,32,1.375,32,1.375a125.144,125.144,0,0,1,8.126,13.439c4.719,8.959,9.892,21.218,10.66,33.009.785,12.039-3.291,20.412-5.041,32.542-1.511,10.425-1.667,23.34,4.8,44.013C1463.416,1299.741,1366.7,1271.211,1372.03,1259.254Z" transform="translate(-1315.629 -1049.156)"/><path class="c" d="M1456.259,1017.876c-4.246-5.146-7.457-4.028-9.26-2.482a6.633,6.633,0,0,0-2.211-2.091c-15.891-6.395-22.527,6.055-22.527,6.055a32.74,32.74,0,0,1-10.708,19.343s5.015,3.1,16.577.125c3.528-.907,6.68-3.411,9.358-6.451a64.208,64.208,0,0,1-11.041,13.482c13.81-6.384,19.355-25.591,19.908-27.623,1.68,1.508,4.991,4.785,6,8,1.372,4.365,1.989,13.35,4.607,13.044C1456.962,1039.275,1462.637,1025.607,1456.259,1017.876Z" transform="translate(-1332.751 -998.291)"/><path class="d" d="M1452.243,1256.589s-36.626,10.492-58.376,6.561a111.83,111.83,0,0,0-2.939-15.28h0c-.013-.046-.029-.108-.046-.178-.124-.5-.38-1.606-.7-3.192a102.358,102.358,0,0,1,15.124-6.965Z" transform="translate(-1323.54 -1095.697)"/><path class="d" d="M1429.082,1135.728s22.02,10.184,32.755,10.459S1437.752,1155.133,1429.082,1135.728Z" transform="translate(-1340.304 -1051.829)"/><path class="f" d="M1454.844,1186.239c-.909,7.956-3.514,14.922-4.819,23.98-25.181,3.3-52.666-5.586-61.316-8.719h0c-.013-.045-.029-.107-.046-.177-1.152-4.625-13.427-60.692,14.872-71.4a27.888,27.888,0,0,1,11.317,7.16c8.026,8.167,21.532,8.352,29.558,7.589a104.835,104.835,0,0,1,8.852,22.146,59.256,59.256,0,0,1,1.808,10.863A47.348,47.348,0,0,1,1454.844,1186.239Z" transform="translate(-1321.323 -1049.326)"/><path class="f" d="M1470.949,1131.842s6.45-.275,8.515,1.1,12.524,13.625,13.074,15.277c0,0-12.937-1.1-14.176-.276C1478.363,1147.944,1483.078,1145.192,1470.949,1131.842Z" transform="translate(-1358.344 -1050.146)"/><path class="e" d="M1504.614,1602.889l-9.735-2.962s-46.678-53.774-36.191-110.225a2.744,2.744,0,0,0-.16-1.763c0-.008,0-.013-.009-.016-2.019-3.992-10.706-21.4-19.723-43-4.314-10.343-8.707-21.652-12.477-32.911-2.23-6.651-4.24-13.286-5.892-19.694-.016-.062-.029-.107-.037-.145a.686.686,0,0,1-.017-.07c-4.054-15.821-5.9-30.235-3.353-40.094l49.946-12.039s5.474,20.35,10.792,46.658c7.448,36.857,15.491,85.411,11.185,106.1C1485.12,1511.075,1504.614,1602.889,1504.614,1602.889Z" transform="translate(-1334.604 -1139.833)"/><path class="g" d="M1539.218,1226.367a27.061,27.061,0,0,1,5.677,11.045s5.677-5.522,6.012-5.651,5.316-2.916,7.484-6.116,3.612-5.849.722-10.666-11.147-6.193-12.111-5.23-3.578,12.937-3.578,12.937S1543.127,1223.593,1539.218,1226.367Z" transform="translate(-1387.76 -1083.6)"/><path class="d" d="M1442.216,1480.831c-4.314-10.343-8.707-21.652-12.477-32.91-2.23-6.651-4.24-13.287-5.892-19.694-.016-.062-.029-.107-.037-.145a.671.671,0,0,1-.016-.07l3.815-.421,38.69-4.278s.248,2.919.582,7.766C1467.695,1442.826,1455.259,1463.027,1442.216,1480.831Z" transform="translate(-1338.026 -1175.746)"/><path class="e" d="M1402.2,1352.723l-22.674,50.37-.347-.173c-12.857,35.338-31.3,80.961-45.758,96.373-12.828,13.67-43.8,102.463-43.8,102.463l-8.328-2.96s-10.5-75.143,27.885-117.854a2.739,2.739,0,0,0,.78-1.585v-.021c.331-4.124,1.772-20.987,4.806-41.779.735-5.045,1.565-10.317,2.494-15.7,1.35-7.8,2.91-15.834,4.7-23.7q.044-.2.087-.384c.075-1.908.393-5.128.844-9.277a170.763,170.763,0,0,1,3.6-21.532c.063-.248.12-.5.182-.751,4.533-18.67,11.007-28.075,11.007-28.075s34.479,9.529,46.452,10.355S1402.2,1352.723,1402.2,1352.723Z" transform="translate(-1276.06 -1139.045)"/><path class="h" d="M1478.276,1390.447c-1.738,2.734-7.37,5.817-14.3,8.542l-.087.033a124.577,124.577,0,0,1-25.231,6.9c-6.3.921-10.941.7-11.457-1.317-4.054-15.822-12.209-38.922-9.666-48.781l51.444-6.991S1472.958,1364.139,1478.276,1390.447Z" transform="translate(-1335.122 -1143.656)"/><path class="d" d="M1399.018,1423.214c-1.5.376-28.732,31.14-57.913,35.7.735-5.045,1.565-10.317,2.494-15.7,1.35-7.8,2.911-15.834,4.7-23.7q.044-.2.087-.384c.075-1.908.393-5.128.844-9.277,12.084-11.825,24.6-22.147,24.6-22.147Z" transform="translate(-1302.396 -1160.404)"/><g transform="translate(0 452.996)"><path class="i" d="M1277.8,1805.276h5.792c1.941-.306,3.373-.867,5.363-1.127,3.023-.4,4.413.842,4.69,1.127a.781.781,0,0,1,.054.057h24.607c.619-.884.025-2.931-.558-4.438a3.5,3.5,0,0,0-2.3-2.106c-2.609-.755-7.753-1.428-12.465-5.693-2.65-2.394-12.8-8.806-12.8-8.806l-.054-.012c-.223,0-1.284.33-5.9,4.227-2.387,2.011-6.453-2.841-6.453-2.841a5.792,5.792,0,0,0-1.333,1.808,6.117,6.117,0,0,0-.529,3.778c.368,2.217-.817,6.338-1.762,9.125-.574,1.689-1.057,2.886-1.057,2.886S1272.815,1804.653,1277.8,1805.276Z" transform="translate(-1273.088 -1784.278)"/><path class="c" d="M1278.977,1787.473c1.383.974,4.3,2.895,6.239,3.147,2.613.342,7.5-6.33,7.5-6.33l-.054-.012c-.223,0-1.284.33-5.9,4.227-2.386,2.011-6.453-2.841-6.453-2.841A5.8,5.8,0,0,0,1278.977,1787.473Z" transform="translate(-1275.625 -1784.278)"/><path class="c" d="M1277.8,1817.465h5.792c1.941-.306,3.373-.867,5.363-1.127,3.023-.4,4.413.842,4.69,1.127a.722.722,0,0,1,.054.057h24.607c.619-.884.025-2.931-.558-4.438-.747-.665-.958,2.886-1.37,3.452s-20.074.207-21.21-.619-4.542-2.271-9.29-1.135c-4.133.987-10.223-1.544-11.729-2.217-.574,1.688-1.057,2.886-1.057,2.886S1272.815,1816.841,1277.8,1817.465Z" transform="translate(-1273.088 -1796.466)"/></g><g transform="translate(151.104 452.996)"><path class="i" d="M1543.307,1805.276h5.793c1.94-.306,3.373-.867,5.363-1.127,3.022-.4,4.413.842,4.69,1.127a.729.729,0,0,1,.054.057h24.607c.619-.884.025-2.931-.557-4.438a3.5,3.5,0,0,0-2.3-2.106c-2.61-.755-7.754-1.428-12.465-5.693-2.651-2.394-12.8-8.806-12.8-8.806l-.053-.012c-.223,0-1.284.33-5.9,4.227-2.386,2.011-6.453-2.841-6.453-2.841a5.792,5.792,0,0,0-1.333,1.808,6.113,6.113,0,0,0-.529,3.778c.368,2.217-.818,6.338-1.763,9.125-.574,1.689-1.057,2.886-1.057,2.886S1538.323,1804.653,1543.307,1805.276Z" transform="translate(-1538.597 -1784.278)"/><path class="i" d="M1544.486,1787.473c1.383.974,4.3,2.895,6.238,3.147,2.614.342,7.5-6.33,7.5-6.33l-.053-.012c-.223,0-1.284.33-5.9,4.227-2.386,2.011-6.453-2.841-6.453-2.841A5.793,5.793,0,0,0,1544.486,1787.473Z" transform="translate(-1541.134 -1784.278)"/><path class="j" d="M1543.307,1817.465h5.793c1.94-.306,3.373-.867,5.363-1.127,3.022-.4,4.413.842,4.69,1.127a.678.678,0,0,1,.054.057h24.607c.619-.884.025-2.931-.557-4.438-.748-.665-.958,2.886-1.371,3.452s-20.074.207-21.209-.619-4.542-2.271-9.29-1.135c-4.133.987-10.223-1.544-11.73-2.217-.574,1.688-1.057,2.886-1.057,2.886S1538.323,1816.841,1543.307,1817.465Z" transform="translate(-1538.597 -1796.466)"/></g><path class="k" d="M1460.931,1214.166c-43.4-2.094-61.774-19.434-61.774-19.434l60.189.009a59.268,59.268,0,0,1,1.808,10.863A47.374,47.374,0,0,1,1460.931,1214.166Z" transform="translate(-1327.409 -1077.254)"/><path class="e" d="M1538.93,1166.258s-34.892,11.491-60.279,12.111c-21.358.521-58.28,3.152-77.928-3.355-3.712-1.23-6.317-2.833-7.4-4.9-6.813-13.005,4.4-26.452,4.4-26.452s6.338.648,15.88,1.56c24.074,2.312,55.085,9.368,69.722,8.926,20.433-.619,39.085.826,56.426,1.376Z" transform="translate(-1323.95 -1055.248)"/><path class="f" d="M1399.878,1174.237c-3.855-1.278-6.561-2.942-7.684-5.09-7.076-13.507.574-23.985,5.072-27.474,3.273-2.54,8.064-.672,16,1.621C1410.955,1145.682,1398.751,1159.1,1399.878,1174.237Z" transform="translate(-1323.17 -1053.866)"/><path class="g" d="M1641.316,1158.878s.921,7.662-1.712,12.926c0,0,5.935-1.838,6.451-1.812s12.464.98,16.7.516,6.434-.138,6.847-7.776.206-10.735-1.239-10.8-8.4,1.17-21.194,6.674C1647.165,1158.6,1646.408,1158.981,1641.316,1158.878Z" transform="translate(-1431.015 -1058.809)"/><path class="l" d="M1472.333,1417.983l-.087.033a124.6,124.6,0,0,1-25.231,6.9c-5.244-8.419-19.4-33.323-2.58-31.948C1464.666,1394.622,1472.333,1417.983,1472.333,1417.983Z" transform="translate(-1343.477 -1162.649)"/><path class="h" d="M1369.539,1338.133s-12.871,15.5-15.637,59.637c0,0,17.326,3.532,21.042,2.431s10.184-16.927,10.184-16.927-3.578,15.552-.138,18.441,25.186,5.506,25.186,5.506l25.874-57.528S1400.054,1345.565,1369.539,1338.133Z" transform="translate(-1307.91 -1139.043)"/><path class="c" d="M1380.649,1329.84s30.454,16.516,52.13,11.768,20.516-6.227,20.516-6.227l-3.731-12.893a52.713,52.713,0,0,1-26.282,5.907c-15.07-.62-36.749-10.786-36.749-10.786Z" transform="translate(-1319.435 -1130.2)"/><g transform="translate(231.104 19.092)"><path class="m" d="M1870.86,1061.372l-27.518,347.92-.182,2.3a32.068,32.068,0,0,1-34.4,29.351l-63.442-5.017a32.067,32.067,0,0,1-29.355-34.4l27.7-350.215a32.07,32.07,0,0,1,34.4-29.356l29.124,2.3,34.318,2.717A32.062,32.062,0,0,1,1870.86,1061.372Z" transform="translate(-1694.98 -1021.855)"/><path class="m" d="M1847.956,1691.7v51.6a15.533,15.533,0,0,1-15.486,15.49H1694.653a15.533,15.533,0,0,1-15.487-15.49v-51.6a15.533,15.533,0,0,1,15.487-15.487H1832.47A15.532,15.532,0,0,1,1847.956,1691.7Z" transform="translate(-1679.166 -1303.811)"/><path class="c" d="M1939.8,1063.192l-27.518,347.92c-18.96-2.453-36.425-15.034-36.425-15.034s20.417-254.324,26.2-311.3c4.6-45.325-16.932-56.163-25.928-58.7l34.318,2.717A32.063,32.063,0,0,1,1939.8,1063.192Z" transform="translate(-1763.917 -1023.675)"/><path class="c" d="M1932.708,1691.7v51.6a15.533,15.533,0,0,1-15.487,15.49h-16.345l-25.02-82.574h41.366A15.532,15.532,0,0,1,1932.708,1691.7Z" transform="translate(-1763.917 -1303.811)"/></g></g><g transform="translate(1118.913 214.296)"><path class="n" d="M982.22,232.747c11.65,14.747,12.345,32.384,10.018,51.17-2.315,18.7.675,39.362,1.5,58.746.46,10.863,1.216,19.489,4.653,29.78,2.83,8.471,7.674,16.2,10.481,24.571.216.225.224.218.017-.02-6.5-8.65-15.774-15.66-20.383-25.615a96.556,96.556,0,0,1-8.558-28.716c-2.623-21.111-4.064-39.7-2.33-60.618,1.124-13.533,3.731-28.719-5.868-38.84-3.985-4.2-8.873-8.155-14.51-8.824-5.514-.653-16.679,5.153-18.606-2.808-1.49-6.15,6.544-9.478,11.091-10.284C960.118,219.442,975.551,224.306,982.22,232.747Z" transform="translate(-864.812 -220.9)"/><path class="o" d="M718.073,1178.631s23.5,28.683,21.9,137.878l1.884,28.226-9.857,1.21c-26.6-70.883-33.708-95.371-47.031-139.278,0,0-6.177-17.011-.7-24.179C684.269,1182.488,696.534,1162.9,718.073,1178.631Z" transform="translate(-682.003 -899.264)"/><path class="p" d="M764.919,1756.34s-3.672,12.085-7.229,15.425-17.5,8.6-17.5,8.6l-7.768,1.46s-5.274,4.122,9.823,7.6,40.771-10.026,40.771-10.026l-4.592-23.007Z" transform="translate(-717.305 -1315.448)"/><path class="q" d="M750.823,1778.721c2.469,1.918,5.174-1.788,5.174-1.788a10.731,10.731,0,0,1,6.35-5.3l7.259,22.255-11.023,4.735c-34.507,14.538-50.961.519-50.961.519-1.892-5.265,1.619-6.957,1.619-6.957,17.7-.9,30.553-13.547,30.553-13.547s1.382-1.441,2.224-5.766c0,0-.212-1.2,2.023-1.091l6.973,1.547s1.882.4.8,2.44Z" transform="translate(-699.867 -1326.346)"/><path class="r" d="M857.235,1781.513c-2.661,1.1-6.714,2.757-9.653,1.518a12.306,12.306,0,0,0,3.7-5.166l-.29.857c2.469,1.918,5.174-1.788,5.174-1.788a10.73,10.73,0,0,1,6.35-5.3l1.888,5.782A27.566,27.566,0,0,1,857.235,1781.513Z" transform="translate(-800.037 -1326.346)"/><path class="a" d="M814.651,1811.973c-.108-3.353-2.257-5.966-4.574-8.184a15.933,15.933,0,0,0-3.294-2.561c-.467-.253-1-.513-1.516-.806,1.582-1.155,2.817-2.165,3.574-2.832.471.613.942,1.24,1.442,1.834,2.13,2.552,5.091,6.651,8.542,7.465,6.372,1.51,12.731-4.833,15.905-9.9l.8,2.47c-.028.134-.064.269-.1.4a99.182,99.182,0,0,1-8.531,7.286c-2.347,1.763-4.932,3.272-6.184,6.06a23.533,23.533,0,0,0-1.439,5.029,36.94,36.94,0,0,1-6.269,1.585A19.677,19.677,0,0,0,814.651,1811.973Z" transform="translate(-769.872 -1344.421)"/><path class="s" d="M721.412,1840.148a8.715,8.715,0,0,0,3.4,4.338c-1.617.617-4.187.024-5.582-.247a6.145,6.145,0,0,1-4.245-3.22A41.214,41.214,0,0,0,721.412,1840.148Z" transform="translate(-705.514 -1375.191)"/><path class="t" d="M720.742,1830.727c7.405,1.721,15.051.405,22.428-.935,6.5-1.189,13.081-3.573,17.624-8.594a25.178,25.178,0,0,0,5.409-10.22l3.57,10.956-11.023,4.735c-34.507,14.538-50.961.52-50.961.52a9.209,9.209,0,0,1-.492-2.02C710.651,1828.692,716.086,1829.649,720.742,1830.727Z" transform="translate(-700.034 -1354.396)"/><path class="r" d="M774.545,1779.072l.318.208c-1.584,3.467-4.781,6.026-7.848,8.211a58.585,58.585,0,0,1-10.695,5.66c-3.323,1.427-6.316,3.42-10.151,3.009a6.5,6.5,0,0,1-5.829-4.689,54.35,54.35,0,0,0,23.177-12.485s1.382-1.441,2.224-5.766c0,0-.212-1.2,2.023-1.091l6.973,1.548s1.882.4.8,2.44Z" transform="translate(-723.589 -1326.697)"/><path class="u" d="M771,1849.133l-11.023,4.736c-34.507,14.538-50.961.519-50.961.519s.061,3.746,2.549,5.4c0,0,21.186,10.624,50.131-2.449a63.815,63.815,0,0,0,10.349-4.651S772.347,1849.324,771,1849.133Z" transform="translate(-701.257 -1381.595)"/><path class="a" d="M811.56,1812.437a1.069,1.069,0,0,1-.984-.645c-2.486-5.717-6.266-5.682-6.25-5.677h-.036a1.072,1.072,0,0,1-.035-2.144c.22,0,5.219-.094,8.287,6.966a1.073,1.073,0,0,1-.555,1.412A1.087,1.087,0,0,1,811.56,1812.437Z" transform="translate(-768.411 -1349.402)"/><path class="a" d="M796.867,1820.073a1.073,1.073,0,0,1-1.013-.72c-1.717-4.952-4.942-5.515-5.079-5.535a1.073,1.073,0,0,1,.3-2.124c.188.026,4.637.694,6.808,6.956a1.072,1.072,0,0,1-.663,1.365Z" transform="translate(-758.892 -1354.9)"/><path class="a" d="M785.1,1828.21a1.072,1.072,0,0,1-1.013-.722c-1.725-4.99-4.649-5.744-4.773-5.773a1.08,1.08,0,0,1-.8-1.282,1.065,1.065,0,0,1,1.262-.814c.169.037,4.193.954,6.34,7.168a1.072,1.072,0,0,1-.663,1.363Z" transform="translate(-750.779 -1360.539)"/><path class="a" d="M770.593,1834.935a1.069,1.069,0,0,1-1.013-.722c-1.663-4.808-4.494-4.885-4.613-4.886a1.081,1.081,0,0,1-1.073-1.063,1.061,1.061,0,0,1,1.033-1.082c.161-.022,4.47-.06,6.678,6.33a1.071,1.071,0,0,1-.662,1.364Z" transform="translate(-740.379 -1365.945)"/><path class="a" d="M753.175,1840.472a1.076,1.076,0,0,1-1.015-.723c-1.657-4.818-4.485-4.9-4.6-4.9a1.081,1.081,0,0,1-1.071-1.065,1.062,1.062,0,0,1,1.037-1.08c.185-.035,4.475-.02,6.668,6.345a1.073,1.073,0,0,1-.665,1.363Z" transform="translate(-727.968 -1369.881)"/><path class="o" d="M728.63,715.637c5.517.029,17.373-4.3,21.085-8.867,28.72-35.366,46.5-58.682,50.338-69.672,3.191-10.572-4.52-32.481-26.81-14.065-10.8,11.811-36.385,44.244-47.4,66.5C725.842,689.538,721.178,713.062,728.63,715.637Z" transform="translate(-712.227 -502.488)"/><path class="o" d="M690,1133.225c49.667,5.929,91.363.152,129.016.91l-12.832-61.209c-21.649,2.133-31.246,5.426-96.562,21.869C709.62,1094.8,667.5,1104.079,690,1133.225Z" transform="translate(-682.988 -828.272)"/><path class="v" d="M997.074,1015.27l-86.4,28.516c15.976,13.529,14.64,34.642,10.348,50.62l88.741-.811C1068.717,1084.312,997.074,1015.27,997.074,1015.27Z" transform="translate(-845.011 -787.171)"/><path class="j" d="M846.659,272.365a54.191,54.191,0,0,0-1.386,22.041c2.205,13.659,10.635,30.747,25.365,35.44,7.26,2.316,10.873,2.142,17.347-1.432a51.473,51.473,0,0,0,13.777-10.52c13.659-14.326,14.132-33.76,8.6-48.692-3.23-8.724-15.569-18.4-25.915-18.041C866.141,251.8,852.106,251.949,846.659,272.365Z" transform="translate(-797.985 -242.464)"/><path class="w" d="M1027.413,379.989c.374,5.2-2.182,11.279-6.746,13.709-6.19,3.3-8.978-2.392-9.3-8.1-.266-4.6,1.3-12.641,6.419-14.577C1022.611,369.2,1027.1,375.714,1027.413,379.989Z" transform="translate(-916.769 -327.69)"/><path class="w" d="M935.908,433.844l-29.022,11.595,14.418,36.09,29.029-11.595Z" transform="translate(-842.313 -372.698)"/><path class="x" d="M935.033,462.015a41.653,41.653,0,0,0-3.815-21.652l-24.331,9.723,12.532,31.372C926.591,477.232,934.527,469.759,935.033,462.015Z" transform="translate(-842.313 -377.345)"/><path class="w" d="M1020.62,685.217l-2.25-81.645-6.215-35.975c-2.994-16.922-20.278-18.747-20.278-18.747l-32.117-2.67-29.042,11.656L922.3,565.3l.565,54.868s-.565,8.277,7.309,18.339l37.634,67.756S1001.839,699,1020.62,685.217Z" transform="translate(-853.303 -452.778)"/><path class="w" d="M904.733,323.6c-2.552,7.681-6.275,14.082-13.092,18.835-6.676,4.648-13.7,7.233-20.7,2.109-5.567-4.082-9.377-10.281-11.684-16.623-5.3-14.58-3.095-35.319,5.65-47.822,9.6-13.735,29.788-11.966,38.373,2.239C910.275,293.906,908.859,311.2,904.733,323.6Z" transform="translate(-806.329 -256.389)"/><path class="x" d="M1037.617,400.626a.9.9,0,0,1-.852-.609c-1.925-5.619-1.009-11.1,2.181-13.026a.9.9,0,0,1,.932,1.541c-2.389,1.446-3.007,6.233-1.409,10.9a.9.9,0,0,1-.561,1.144Z" transform="translate(-934.183 -339.208)"/><path class="x" d="M1037.912,402.727a.9.9,0,0,1-.521-1.633c1.528-1.085,3.979-.774,5.761-.124a.9.9,0,0,1-.617,1.691c-1.394-.509-3.2-.738-4.1-.1A.9.9,0,0,1,1037.912,402.727Z" transform="translate(-935.073 -348.843)"/><path class="h" d="M963.834,548.563c2.878.089,3.13.252,6.246.511-5.167,19.443-.929,43.714,13.077,54.417,8.838,6.754,20.816,5.522,31.059,1.779.606,7.185.5,13.581.441,18.884-47.752,34.491-83.9,31.879-83.9,31.879L923.7,641.894c-8.451-11.272-7.155-19.751-7.155-19.751l1.6-55.142,4.066-3.521s-4.672,42.272,19.872,34.9C942.09,598.383,964.576,594.983,963.834,548.563Z" transform="translate(-849.15 -454.476)"/><path class="y" d="M887.544,395.269c.075,1.652-.672,3.027-1.667,3.072s-1.855-1.266-1.925-2.917.668-3.033,1.665-3.074S887.471,393.611,887.544,395.269Z" transform="translate(-825.96 -343.118)"/><path class="y" d="M962.473,391.983c.074,1.655-.673,3.032-1.666,3.074s-1.854-1.26-1.927-2.917.669-3.028,1.664-3.073S962.4,390.329,962.473,391.983Z" transform="translate(-879.373 -340.778)"/><path class="x" d="M907.458,398.338h-.029c-2.534-.083-4.626-.934-5.736-2.335a2.919,2.919,0,0,1-.679-2.388A20.685,20.685,0,0,1,903,389.877c1-1.725,2.611-4.519,2.953-5.456l-3.6-5.3a.9.9,0,0,1,1.491-1.012l3.8,5.594.092.174c.268.674.007,1.391-3.176,6.9-.748,1.3-1.68,2.91-1.79,3.237a1.231,1.231,0,0,0,.337.87c.288.364,1.456,1.558,4.385,1.655a.9.9,0,0,1-.03,1.8Z" transform="translate(-838.092 -332.687)"/><path class="j" d="M949.86,371.081a19.669,19.669,0,0,1,5.758.757c-.391-3.8-8.283-3.157-10.228-2.807-.94.166-1.771.639-1,2.738C944.775,372.836,946.384,371.342,949.86,371.081Z" transform="translate(-868.829 -326.301)"/><path class="j" d="M875.117,373.958a19.7,19.7,0,0,0-5.672,1.254c.056-3.819,7.972-3.872,9.941-3.689.95.085,1.819.48,1.242,2.639C880.33,375.256,878.594,373.916,875.117,373.958Z" transform="translate(-815.622 -328.232)"/><path class="j" d="M900.544,268.436s2.48,7.473,3.583,12.357c2.3,4.748,6.97,9.6,7.682,9.968a7.52,7.52,0,0,0,1.864-.534,5.332,5.332,0,0,1,4.912-5.383c2.262-.216,4.33,2.554,5.079,4.946.01-2.41.088-5.48-.035-8.043a58.021,58.021,0,0,0-.863-7.512c-1.041-5.764-1.689-8.918-4.787-14.21-3.331-5.687-8.254-9.954-14.957-11.218-8.082-1.526-19.916-.22-27.67,2.915-3.035,1.232-11.928,8.091-7.02,19.72,0,0,3.828-5.3,13.108-2.981C881.439,268.461,893.542,262.827,900.544,268.436Z" transform="translate(-813.796 -240.34)"/><path class="a" d="M899.7,452.28l14.334-2.768s.215,10.1-5.988,10.831C908.048,460.343,901.292,461.4,899.7,452.28Z" transform="translate(-837.192 -383.867)"/><path class="w" d="M1054.177,1171.513s22.557,29.433,17.4,138.519l.966,28.275-9.888.888c-24.277-71.712-30.591-96.416-42.478-140.734,0,0-5.622-17.2.086-24.192C1020.267,1174.269,1033.161,1155.087,1054.177,1171.513Z" transform="translate(-921.311 -893.811)"/><path class="p" d="M1081.238,1754.609s-3.673,12.085-7.231,15.425-17.5,8.6-17.5,8.6l-7.767,1.461s-5.275,4.123,9.823,7.6,40.769-10.025,40.769-10.025l-4.592-23.006Z" transform="translate(-942.795 -1314.213)"/><path class="q" d="M1067.139,1777c2.471,1.918,5.174-1.788,5.174-1.788a10.736,10.736,0,0,1,6.351-5.305l7.26,22.254-11.023,4.736c-34.507,14.539-50.962.52-50.962.52-1.891-5.264,1.62-6.955,1.62-6.955,17.7-.9,30.554-13.547,30.554-13.547s1.379-1.442,2.224-5.768c0,0-.213-1.2,2.022-1.093l6.973,1.548s1.881.4.8,2.44Z" transform="translate(-925.356 -1325.115)"/><path class="r" d="M1173.554,1779.785c-2.66,1.1-6.715,2.758-9.652,1.518a12.294,12.294,0,0,0,3.7-5.167l-.292.859c2.471,1.918,5.174-1.788,5.174-1.788a10.736,10.736,0,0,1,6.351-5.305l1.888,5.782A27.557,27.557,0,0,1,1173.554,1779.785Z" transform="translate(-1025.528 -1325.115)"/><path class="a" d="M1130.974,1810.246c-.109-3.354-2.257-5.966-4.574-8.183a16.049,16.049,0,0,0-3.3-2.562c-.465-.254-1-.514-1.514-.805,1.582-1.154,2.816-2.166,3.571-2.833.473.612.945,1.24,1.444,1.835,2.128,2.552,5.091,6.649,8.539,7.466,6.372,1.508,12.732-4.836,15.908-9.905l.8,2.469c-.029.135-.064.269-.1.4a99.162,99.162,0,0,1-8.535,7.285c-2.344,1.764-4.932,3.273-6.181,6.06a23.3,23.3,0,0,0-1.438,5.03,37.073,37.073,0,0,1-6.27,1.584A19.628,19.628,0,0,0,1130.974,1810.246Z" transform="translate(-995.365 -1343.19)"/><path class="s" d="M1037.727,1838.426a8.691,8.691,0,0,0,3.4,4.335c-1.62.617-4.187.024-5.582-.247a6.15,6.15,0,0,1-4.247-3.219A41.228,41.228,0,0,0,1037.727,1838.426Z" transform="translate(-930.999 -1373.963)"/><path class="t" d="M1037.062,1829c7.405,1.722,15.053.4,22.428-.937,6.5-1.189,13.08-3.573,17.624-8.592a25.19,25.19,0,0,0,5.408-10.223l3.572,10.956-11.023,4.736c-34.507,14.539-50.961.52-50.961.52a9.248,9.248,0,0,1-.491-2.02C1026.969,1826.962,1032.407,1827.918,1037.062,1829Z" transform="translate(-925.525 -1353.162)"/><path class="r" d="M1090.857,1777.344l.32.206c-1.583,3.467-4.782,6.028-7.848,8.213a58.742,58.742,0,0,1-10.695,5.659c-3.324,1.427-6.317,3.419-10.152,3.009a6.508,6.508,0,0,1-5.829-4.69,54.382,54.382,0,0,0,23.179-12.483s1.379-1.442,2.224-5.768c0,0-.213-1.2,2.022-1.093l6.973,1.548s1.881.4.8,2.439Z" transform="translate(-949.074 -1325.464)"/><path class="u" d="M1087.313,1847.4l-11.023,4.736c-34.507,14.539-50.961.52-50.961.52s.059,3.745,2.548,5.4c0,0,21.186,10.623,50.134-2.449a63.959,63.959,0,0,0,10.35-4.652S1088.664,1847.594,1087.313,1847.4Z" transform="translate(-926.744 -1380.362)"/><path class="a" d="M1127.892,1810.708a1.072,1.072,0,0,1-.984-.645c-2.428-5.587-6.036-5.678-6.259-5.678h-.005l-.01,0a1.082,1.082,0,0,1-1.079-1.052,1.066,1.066,0,0,1,1.032-1.093c.255-.011,5.218-.094,8.289,6.965a1.073,1.073,0,0,1-.558,1.411A1.053,1.053,0,0,1,1127.892,1810.708Z" transform="translate(-993.914 -1348.169)"/><path class="a" d="M1113.184,1818.353a1.073,1.073,0,0,1-1.013-.721c-1.719-4.954-4.945-5.514-5.081-5.535a1.072,1.072,0,0,1,.3-2.124c.187.025,4.637.692,6.809,6.956a1.073,1.073,0,0,1-.661,1.365Z" transform="translate(-984.378 -1353.674)"/><path class="a" d="M1101.417,1826.484a1.071,1.071,0,0,1-1.013-.722c-1.723-4.988-4.647-5.744-4.772-5.773a1.079,1.079,0,0,1-.8-1.282,1.063,1.063,0,0,1,1.262-.812c.169.035,4.192.953,6.339,7.166a1.07,1.07,0,0,1-.662,1.364Z" transform="translate(-976.27 -1359.31)"/><path class="a" d="M1086.913,1833.208a1.071,1.071,0,0,1-1.013-.721c-1.663-4.81-4.493-4.886-4.615-4.888a1.08,1.08,0,0,1-1.071-1.063,1.062,1.062,0,0,1,1.034-1.082c.158-.023,4.468-.059,6.677,6.331a1.073,1.073,0,0,1-.663,1.364Z" transform="translate(-965.87 -1364.713)"/><path class="a" d="M1069.492,1838.744a1.078,1.078,0,0,1-1.014-.723c-1.657-4.817-4.484-4.9-4.6-4.9a1.079,1.079,0,0,1-1.071-1.065,1.063,1.063,0,0,1,1.035-1.079c.148-.033,4.475-.02,6.668,6.347a1.069,1.069,0,0,1-.666,1.36Z" transform="translate(-953.46 -1368.65)"/><path class="w" d="M1185.672,658.137c.894-5.447,5.275-12.734,2.254-17.784-16.97-28.378-41.027-57.176-51.27-62.7-9.941-4.817-38.233,4.3-27.941,27.909,7.424,12.946,53.934,45.586,56.98,52.845C1165.694,658.406,1175.688,668.472,1185.672,658.137Z" transform="translate(-984.605 -474.325)"/><path class="v" d="M1141.472,978.472c-4.381-11.651-5.076-17.672-13.918-27.034-8.752-9.265-8.752-9.265-21.669-20.4-.308-.266-14.112-12.915-14.266-12.774-29.877,27.053-68.184,23.6-68.184,23.6l24.055,49.595s.042,43.4,47.724,22.457C1095.213,1013.906,1137.825,993.449,1141.472,978.472Z" transform="translate(-925.394 -718.016)"/><path class="w" d="M1054.743,1151.443c54.26-1.876,65.673-7.351,89.657-16.246l.7-50.228s-40.982,6.37-93.753,25.321C1051.346,1110.29,1046.688,1125.2,1054.743,1151.443Z" transform="translate(-944.336 -836.857)"/><path class="v" d="M1178.6,1123.615c19.443-.541,29.13-1.959,36.136-5.432,42.762-25.943,11.2-67.535,11.2-67.535s-29.5,2.237-70.218,25.57C1155.723,1076.218,1179.269,1082.751,1178.6,1123.615Z" transform="translate(-1019.697 -812.391)"/><path class="z" d="M992.539,756.468c8.538,1.751,52.314,1.973,103.159.746,0,0,19.455,22.865-.122,32.357-32.621,5.214-62.6.759-105.235-25.555a8.92,8.92,0,0,1-5.458-8.382l6.471-2.193Z" transform="translate(-897.913 -600.525)"/><path class="y" d="M1017.287,617.471a.9.9,0,0,1-.5-1.641c10.692-7.221,18.687-25.275,17.112-38.636a.9.9,0,1,1,1.78-.21c1.674,14.184-6.517,32.654-17.887,40.334A.9.9,0,0,1,1017.287,617.471Z" transform="translate(-920.372 -474.17)"/><path class="y" d="M1001.659,893.016a.9.9,0,0,1-.129-1.786c9.072-1.34,22.14-4.2,32.9-10.215a.9.9,0,1,1,.876,1.567c-10.993,6.147-24.291,9.061-33.509,10.424Z" transform="translate(-909.233 -691.386)"/><path class="y" d="M1217.444,764.25l-.111-.008a92.021,92.021,0,0,0-20.246-.53c-3.1.206-6.295.414-10.587.313a.9.9,0,0,1,.022-1.795h.022c4.21.1,7.368-.107,10.423-.311a93.713,93.713,0,0,1,20.585.543.9.9,0,0,1-.108,1.788Z" transform="translate(-1041.012 -606.334)"/><path class="y" d="M1158.127,1243.335a.9.9,0,0,1-.9-.871c-.265-8.759-6.055-21.913-11.5-29.569a.9.9,0,1,1,1.46-1.04c5.523,7.764,11.546,21.112,11.833,30.555a.9.9,0,0,1-.87.926Z" transform="translate(-1012.455 -927.038)"/><path class="y" d="M827.828,1258.088a.9.9,0,0,1-.885-.759c-1.729-11.073-6.19-22.158-11.939-29.654a.9.9,0,1,1,1.423-1.093c5.923,7.724,10.518,19.114,12.29,30.47a.9.9,0,0,1-.748,1.025Z" transform="translate(-776.681 -937.556)"/><path class="z" d="M992.5,667.155s3.687-6.174,4.12-16.3c.1-2.28-8.793-22.708-8.793-22.708s-1.827,1.3-2.1,5.4l-.9,33.315Z" transform="translate(-897.873 -511.212)"/><path class="z" d="M950.054,659.558s-3.517-6.27-3.676-16.4c-.032-2.282,9.412-22.458,9.412-22.458s1.788,1.35,1.949,5.457l-.009,33.328Z" transform="translate(-870.465 -505.899)"/><path class="z" d="M780.425,748.446c-17.854,15.377-37.7,17.965-64.036,32.045,0,0-14.951,23.234-1.049,33.583,26.232-.487,51.312-34.183,69.064-55.91,0,0,4.42-3.62,4.411-9.042l-7.644-2.678Z" transform="translate(-701.548 -595.538)"/><path class="y" d="M775.123,814.86a.9.9,0,0,1-.422-1.688,225.265,225.265,0,0,1,25.2-11.84.9.9,0,1,1,.67,1.665,224.06,224.06,0,0,0-25.027,11.757A.883.883,0,0,1,775.123,814.86Z" transform="translate(-747.744 -634.618)"/></g></g></svg>