<svg xmlns="http://www.w3.org/2000/svg" xmlns:xlink="http://www.w3.org/1999/xlink" width="730.001" height="610.284" viewBox="0 0 730.001 610.284"><defs><style>.a{fill:#050c44;}.b{fill:#242e6c;}.c{fill:#0065e9;}.d{fill:#fff;}.e{fill:#1b2251;}.f{fill:#2d3872;}.g{fill:#ff9792;}.h{fill:#00b99d;}.i{fill:#ff7d78;}.j{fill:#00073e;}.k{fill:#00e9c5;}.l{fill:#01306d;}.m{fill:#033678;}.n{fill:#044395;}.o{fill:#024cac;}.p{fill:#06d5b5;}.q{fill:#02459b;}.r{fill:#368af8;}.s{fill:#07499f;}.t{fill:#013375;}.u{fill:url(#a);}.v{fill:#ecebfc;}.w{fill:#004094;}.x{fill:#063d84;}.y{fill:#0752b4;}</style><linearGradient id="a" y1="0.5" x2="1" y2="0.5" gradientUnits="objectBoundingBox"><stop offset="0" stop-color="#00e9c5"/><stop offset="0.95" stop-color="#06bb9f"/><stop offset="1" stop-color="#00e9c5"/></linearGradient></defs><g transform="translate(-1908.267 -635.251)"><g transform="translate(1908.267 635.251)"><path class="a" d="M2822.9,635.251H2567.25c-4.185,0-7.609,3.674-7.609,8.164s3.424,8.164,7.609,8.164h36.983V1238a6.522,6.522,0,1,0,13.011,0v-79.881h161.393V1238a6.522,6.522,0,1,0,13.011,0V651.578h31.25c4.185,0,7.609-3.674,7.609-8.164S2827.082,635.251,2822.9,635.251ZM2617.244,863.428h161.393v136.715H2617.244ZM2778.637,852.8H2617.244V716.08h161.393Zm-161.393,294.7V1010.776h161.393v136.715Zm161.393-442.043H2617.244v-53.87h161.393Z" transform="translate(-2274.127 -635.251)"/><rect class="b" width="1.534" height="223.073" transform="translate(123.195 351.964)"/><g transform="translate(0 350.479)"><path class="c" d="M2134.475,1575.435a129.2,129.2,0,1,1,50.446-10.186A128.782,128.782,0,0,1,2134.475,1575.435Zm0-252.456a122.86,122.86,0,1,0,86.875,35.985A122.056,122.056,0,0,0,2134.475,1322.979Z" transform="translate(-2004.878 -1316.242)"/></g><g transform="translate(112.626 175.111)"><path class="d" d="M2348.774,1130.337s-22.9,1.338-25.389,10.8c-3.97,15.086-7.679,50.244-7.679,50.244l-23.107-28.652-8.318,4.005s19.718,52.99,36.354,50.526S2348.774,1130.337,2348.774,1130.337Z" transform="translate(-2268.109 -1050.647)"/><path class="d" d="M2439.037,1223.08c-8.725-19.568-12.9-25.1-13.045-31.258-.116-4.869,2.285-10.122,6.948-23a48,48,0,0,0,2.323-9.312c3.688-24.833-10.672-51.679-19.6-53.507-2.483-.657-6.693-9.626-6.641-24.078l-1.117.22-18.794,3.722s.428,5.915.441,11.486c.013,4.635-.266,9.032-1.313,9.6-1.357.123-2.157.2-2.157.2s-15.67,21.763-16.989,42,12.549,29.033-.1,69.48C2356.071,1259.943,2443.858,1233.893,2439.037,1223.08Z" transform="translate(-2308.591 -1027.149)"/><path class="d" d="M2446.205,977.9c-4.169-2.551-10.827.5-10.827.5,2.3-3.236,10.7-2.178,10.7-2.178-16.733-3.561-20.227,7.138-20.515,8.139-12.138-10.953-31.57,12.4-31.57,12.4l27.886,36.964s2.544-5.88,5.9-4.045c5.24,2.862,15.373-8.72,12.134-23.958a40.287,40.287,0,0,0-1.237-4.531,9.032,9.032,0,0,0,3.478.86c3.049,0,7.654-7.778,8.276-10.392S2450.375,980.451,2446.205,977.9Z" transform="translate(-2321.358 -975.497)"/><path class="d" d="M2409.314,1086.07s.428,5.915.441,11.486c10.516-.3,16.076-9.89,18.353-15.208Z" transform="translate(-2328.793 -1027.356)"/><path class="d" d="M2418.888,1041.958s5.511-8.708,6.834-16.154c.945-5.316-1.764-25.021-21.565-22.183a26.9,26.9,0,0,0-11.156,4.218c-4.3,2.9-10.5,9.173-3.566,26.368l1.8,5.808Z" transform="translate(-2317.632 -989.011)"/><path class="d" d="M2394.676,1060.237s24.882.41,24.9-15.089,3.241-25.885-12.646-26.8-18.979,4.993-20.244,10.166S2388.2,1059.73,2394.676,1060.237Z" transform="translate(-2317.666 -996.247)"/><path class="d" d="M2385.723,1442.977c-3.521,19.942-6.1,34.891-6.1,34.891,10.417,42.724-37.5,108.811-37.5,108.811l-7.443-2.988s21.679-52.158,14.287-104.169c-10.454-73.554,3.36-122.839,3.36-122.839l44.236,14.27,2.062.665C2394.691,1392.457,2389.632,1420.8,2385.723,1442.977Z" transform="translate(-2294.569 -1160.502)"/><path class="d" d="M2448.584,1241.984c-4.663,12.881-7.064,18.135-6.948,23-14.864-23.015-41.713-26.487-41.713-26.487l50.983-5.828A48,48,0,0,1,2448.584,1241.984Z" transform="translate(-2324.235 -1100.314)"/><path class="d" d="M2458.472,1127.8s21.266,2.178,23.756,7.654c8.034,17.676,16.055,77.288,18.3,82.515s9.085,33.976,14.935,48.164l-7.468,2.24s-24.643-40.885-26.883-51.525-14.524-53.917-14.524-53.917Z" transform="translate(-2352.651 -1049.414)"/><path class="d" d="M2428.857,1177.316l.291,18.467a194.2,194.2,0,0,0-33.528-6.15,106.334,106.334,0,0,0-12.634-.351,53.491,53.491,0,0,0-14.222,2.214s-2.737-11.948-5.477-26.136q-.146-.766-.235-1.523c-1.583-13.5,10.409-24.527,5.369-29.925,0,0,4.651-2.594,15.341-3.834,0,0-8.4,14.811-7.654,18.545s33.23.374,35.47-1.68,5.787-17.78,5.787-17.78,12.2,1.237,17.127,5.351a49.742,49.742,0,0,0-6.187,10.443,25.772,25.772,0,0,0-1.606,5.16c-.87,4.649-3.173,13.5,2.053,20.472Z" transform="translate(-2306.269 -1050.077)"/><path class="d" d="M2422.582,1426.126c-3.931,20.837-4.51,25.661-8.419,47.836-24.273-42.37-20.7-53.437-20.7-53.437Z" transform="translate(-2321.009 -1191.487)"/><path class="d" d="M2499.52,1575.625l-7.261,2.581s-28.278-80.2-39.876-92.563c-22.414-23.885-55.4-128.036-55.4-128.036l44.576-14.468c6.612,6.41,11.985,18.4,16.313,32.524,10.921,35.634,15.159,84.811,15.73,91.931v.017a2.469,2.469,0,0,0,.706,1.436C2509.01,1507.672,2499.52,1575.625,2499.52,1575.625Z" transform="translate(-2322.806 -1153.928)"/><path class="d" d="M2394.235,1393.274l-7.284-1.9a71.733,71.733,0,0,0-10.794-2.655,73.125,73.125,0,0,0-19.281-.773c3.36-35.937,7.244-44.55,7.244-44.55l4.742-.254,12.41,25.7Z" transform="translate(-2303.343 -1153.928)"/><path class="d" d="M2412.365,1417.513l-7.284-1.9a71.791,71.791,0,0,0-10.794-2.655c-.489-6.9,2.288-14.293,5.115-19.874Z" transform="translate(-2321.472 -1178.167)"/><path class="d" d="M2506.831,1498.266c-23.343-18.25-41.377-79.4-41.377-79.4l25.647-12.53C2502.022,1441.969,2506.26,1491.146,2506.831,1498.266Z" transform="translate(-2356.04 -1184.6)"/><path class="d" d="M2372.867,1337.492s10.688,8.074,21.515,7.327,42.439-7.965,42.439-7.965,5.857,8.507,9.957,25.389a158.883,158.883,0,0,1,4.557,30.182s-37.414-4.668-52.349,3.172Z" transform="translate(-2311.104 -1150.878)"/><path class="d" d="M2411.259,1037.166c10.456,2.688,14.991-.114,14.991-.114a40,40,0,0,0-9.684-17.492c-3.9-4.106-21.818-4.413-22.372-3.585-1.63-1.4-4.534-2.409-8.374,2.245-5.768,6.992-.635,19.351-.635,19.351,2.368.276,2.926-7.849,4.167-11.8.913-2.9,3.907-5.868,5.426-7.232.5,1.837,5.514,19.207,18,24.98a58.054,58.054,0,0,1-9.984-12.192C2405.219,1034.081,2408.069,1036.345,2411.259,1037.166Z" transform="translate(-2316.061 -994.574)"/><path class="d" d="M2330.908,1819.9a.65.65,0,0,0-.049.053h-2.569a4.486,4.486,0,0,1,.68-.053Z" transform="translate(-2289.469 -1385.317)"/><g transform="translate(149.451 211.998)"><g transform="translate(10.527)"><path class="d" d="M2595.451,1396.9a13.181,13.181,0,0,0-16.314-9,13.826,13.826,0,0,0-4.879,2.41l-2.822,2.047s-2.978,7.553-1.919,11.5c1.848,6.892,17.952,9,17.952,9l3.2-2.37v0A12.923,12.923,0,0,0,2595.451,1396.9Z" transform="translate(-2566.415 -1387.416)"/><path class="d" d="M2590.064,1400.681a13.435,13.435,0,1,0-9.621,15.958A13.181,13.181,0,0,0,2590.064,1400.681Z" transform="translate(-2563.702 -1389.252)"/></g><path class="d" d="M2569.664,1413.788a3,3,0,0,0-4.018-2.317c-.816.3-22.4,13.808-22.4,13.808l4.617,5.718,20.944-14.952A2.485,2.485,0,0,0,2569.664,1413.788Z" transform="translate(-2543.247 -1398.996)"/></g><g transform="translate(0 85.308)"><path class="d" d="M2277.3,1146.189l-2.821-2.047a13.826,13.826,0,0,0-4.878-2.41,13.181,13.181,0,0,0-16.314,9,12.923,12.923,0,0,0,4.786,13.583l0,0,3.2,2.369s16.1-2.107,17.953-9C2280.279,1153.742,2277.3,1146.189,2277.3,1146.189Z" transform="translate(-2252.859 -1141.253)"/><path class="d" d="M2274.8,1145.516a12.93,12.93,0,1,0,9.62,15.958A13.18,13.18,0,0,0,2274.8,1145.516Z" transform="translate(-2255.382 -1143.089)"/><path class="d" d="M2283.243,1165.308a3,3,0,0,0-4.019,2.318,2.486,2.486,0,0,0,.855,2.256l20.945,14.952,4.617-5.717S2284.058,1165.609,2283.243,1165.308Z" transform="translate(-2265.649 -1152.833)"/></g><path class="d" d="M2280.444,1184.431s-7.7-9.551-2.156-14.48,12.734-3.492,12.939-.617-2.464,11.092-2.464,11.092Z" transform="translate(-2264.226 -1068.299)"/><path class="d" d="M2561.626,1394.166s2.271,5.351,4.635,6.845,5.726,5.1,5.1,7.965-1.245,7.343-4.232,7.343-9.957-13.192-10.827-15.681-1.618-2.987-1.618-2.987Z" transform="translate(-2399.348 -1178.694)"/><g transform="translate(140.947 223.533)"><path class="d" d="M2561.262,1420.142a14.339,14.339,0,0,0-17.747-9.794,15.032,15.032,0,0,0-5.307,2.622l-3.069,2.227s-3.24,8.217-2.089,12.511c2.011,7.5,19.531,9.791,19.531,9.791l3.478-2.577,0,0A14.059,14.059,0,0,0,2561.262,1420.142Z" transform="translate(-2529.674 -1409.828)"/><path class="d" d="M2555.4,1424.257a14.616,14.616,0,1,0-10.465,17.359A14.338,14.338,0,0,0,2555.4,1424.257Z" transform="translate(-2526.724 -1411.825)"/><g transform="translate(8.945 11.054)"><path class="d" d="M2555.25,1434.655a4.654,4.654,0,0,0-5.761-3.18,4.885,4.885,0,0,0-1.724.851l-1,.723.122.156a4.492,4.492,0,0,0-.8,3.906,4.654,4.654,0,0,0,5.762,3.179q.237-.063.463-.149l.115.148,1.129-.837h0A4.564,4.564,0,0,0,2555.25,1434.655Z" transform="translate(-2544.995 -1431.307)"/><path class="d" d="M2553.415,1435.991a4.745,4.745,0,1,0-3.4,5.636A4.656,4.656,0,0,0,2553.415,1435.991Z" transform="translate(-2544.104 -1431.955)"/></g></g><g transform="translate(16.442 96.842)"><path class="d" d="M2285.273,1173.979a14.338,14.338,0,0,1,17.747-9.793,15.039,15.039,0,0,1,5.308,2.622l3.069,2.226s3.24,8.217,2.088,12.511c-2.011,7.5-19.53,9.791-19.53,9.791l-3.478-2.577v0A14.059,14.059,0,0,1,2285.273,1173.979Z" transform="translate(-2284.807 -1163.664)"/><path class="d" d="M2308.674,1168.3a14.067,14.067,0,1,0,10.465,17.359A14.338,14.338,0,0,0,2308.674,1168.3Z" transform="translate(-2287.552 -1165.662)"/><g transform="translate(12.702 11.055)"><path class="d" d="M2318,1187.042l.122-.155-1-.723a4.874,4.874,0,0,0-1.724-.851,4.655,4.655,0,0,0-5.762,3.179,4.565,4.565,0,0,0,1.69,4.8h0l1.129.837.115-.148q.226.084.464.149a4.655,4.655,0,0,0,5.762-3.179A4.494,4.494,0,0,0,2318,1187.042Z" transform="translate(-2309.488 -1185.144)"/><path class="d" d="M2317.237,1186.649a4.567,4.567,0,1,0,3.4,5.636A4.655,4.655,0,0,0,2317.237,1186.649Z" transform="translate(-2310.379 -1185.792)"/></g></g><g transform="translate(18.9 415.589)"><path class="d" d="M2326.45,1801.988h-5.238c-1.755-.276-3.051-.784-4.85-1.02-2.733-.358-3.991.762-4.241,1.02a.624.624,0,0,0-.049.052H2289.82c-.561-.8-.023-2.651.5-4.014a3.168,3.168,0,0,1,2.084-1.9c2.36-.683,7.012-1.292,11.272-5.149,2.4-2.166,11.574-7.964,11.574-7.964l.049-.011c.2,0,1.161.3,5.336,3.823,2.158,1.818,5.836-2.569,5.836-2.569a5.239,5.239,0,0,1,1.206,1.635,5.527,5.527,0,0,1,.478,3.416c-.333,2.005.739,5.731,1.594,8.251.52,1.527.956,2.61.956,2.61S2330.957,1801.424,2326.45,1801.988Z" transform="translate(-2289.582 -1782.998)"/><path class="d" d="M2351.888,1785.888c-1.251.881-3.89,2.618-5.641,2.845-2.363.31-6.784-5.724-6.784-5.724l.049-.011c.2,0,1.161.3,5.335,3.823,2.158,1.818,5.836-2.569,5.836-2.569A5.239,5.239,0,0,1,2351.888,1785.888Z" transform="translate(-2313.791 -1782.998)"/><path class="d" d="M2326.45,1815.716h-5.238c-1.755-.276-3.051-.784-4.85-1.02-2.733-.358-3.991.762-4.241,1.02a.614.614,0,0,0-.049.052H2289.82c-.561-.8-.023-2.651.5-4.014.676-.6.866,2.61,1.24,3.121s18.154.187,19.18-.56,4.107-2.054,8.4-1.027c3.738.892,9.244-1.4,10.607-2.005.52,1.527.956,2.61.956,2.61S2330.957,1815.152,2326.45,1815.716Z" transform="translate(-2289.582 -1796.726)"/></g><g transform="translate(140.323 415.589)"><path class="d" d="M2562.379,1801.988h-5.238c-1.755-.276-3.051-.784-4.85-1.02-2.733-.358-3.991.762-4.242,1.02a.593.593,0,0,0-.048.052h-22.253c-.56-.8-.023-2.651.5-4.014a3.169,3.169,0,0,1,2.083-1.9c2.36-.683,7.012-1.292,11.272-5.149,2.4-2.166,11.575-7.964,11.575-7.964l.048-.011c.2,0,1.161.3,5.336,3.823,2.158,1.818,5.836-2.569,5.836-2.569a5.239,5.239,0,0,1,1.206,1.635,5.522,5.522,0,0,1,.478,3.416c-.332,2.005.739,5.731,1.594,8.251.519,1.527.956,2.61.956,2.61S2566.886,1801.424,2562.379,1801.988Z" transform="translate(-2525.51 -1782.998)"/><path class="d" d="M2587.817,1785.888c-1.251.881-3.89,2.618-5.641,2.845-2.364.31-6.784-5.724-6.784-5.724l.049-.011c.2,0,1.161.3,5.335,3.823,2.158,1.818,5.835-2.569,5.835-2.569A5.238,5.238,0,0,1,2587.817,1785.888Z" transform="translate(-2549.719 -1782.998)"/><path class="d" d="M2562.379,1815.716h-5.238c-1.755-.276-3.051-.784-4.85-1.02-2.733-.358-3.991.762-4.242,1.02a.584.584,0,0,0-.048.052h-22.253c-.56-.8-.023-2.651.5-4.014.676-.6.866,2.61,1.24,3.121s18.153.187,19.18-.56,4.107-2.054,8.4-1.027c3.738.892,9.245-1.4,10.608-2.005.519,1.527.956,2.61.956,2.61S2566.886,1815.152,2562.379,1815.716Z" transform="translate(-2525.51 -1796.726)"/></g><path class="d" d="M2460,1241.193a194.2,194.2,0,0,0-33.529-6.15,44,44,0,0,0,33.2-12.28.33.33,0,0,0,.037-.037Z" transform="translate(-2337.119 -1095.487)"/><path class="d" d="M2370.952,1339.9s9.7,7.1,19.968,7.391,46.366-8.543,46.366-8.543l-1.488-2.807s-39.566,10.583-48.845,7.447a64.52,64.52,0,0,1-14.774-6.938Z" transform="translate(-2310.174 -1150.434)"/></g><g transform="translate(393.525 243.828)"><path class="b" d="M12.187,0H94.562A12.188,12.188,0,0,1,106.75,12.188V77.821A12.187,12.187,0,0,1,94.563,90.008H12.188A12.188,12.188,0,0,1,0,77.82V12.187A12.187,12.187,0,0,1,12.187,0Z" transform="translate(159.181 276.316)"/><path class="e" d="M3133.318,1645.906l-11.578,37.688-42.937-29.5v-1.92a6.291,6.291,0,0,1,6.272-6.272Z" transform="translate(-2919.622 -1369.59)"/><path class="f" d="M12.188,0H94.564a12.187,12.187,0,0,1,12.187,12.187V77.818A12.187,12.187,0,0,1,94.564,90.005H12.187A12.187,12.187,0,0,1,0,77.818V12.188A12.188,12.188,0,0,1,12.188,0Z" transform="translate(200.712 276.317)"/><path class="g" d="M3068.532,1305.565c-3.218,5.887-11.233,9.3-20.709,11.9q-1.584.431-3.217.84c-16.607,4.146-38.859,1.764-45.305,10.4-7.159,9.6-15.681,59.988-15.681,59.988-10.26,4.085-10.144,2.084-10.144,2.084-3.151-13.621-3.389-55.047-2.643-66.457.852-13.107,27.774-31.5,50.931-44.966,17.691-10.294,33.186-17.712,33.186-17.712.481.1.957.21,1.415.326C3076.774,1267.149,3077.389,1289.362,3068.532,1305.565Z" transform="translate(-2867.048 -1183.092)"/><path class="h" d="M3104.728,1261.969c-2.189,18.337-5.71,45.431-8.541,55.5q-1.584.431-3.217.84c0-.011-.006-.028-.006-.039-3.2-19.216-19.365-35.579-22.837-38.912,17.69-10.294,33.186-17.712,33.186-17.712C3103.793,1261.742,3104.27,1261.853,3104.728,1261.969Z" transform="translate(-2915.411 -1183.092)"/><path class="i" d="M3221.854,1382.989a187.054,187.054,0,0,0-4.936-23.771c-6.584-23.782-16.214-40.256-23.179-67.786-11.167-43.678-27.2-73.3-47.852-80.5-.047-.015-.106-.032-.169-.05-1.631-.5-14.745-4.895-24.166-19.663q-.763-1.194-1.481-2.471a53.505,53.505,0,0,1-2.759-5.611q-.6-1.385-1.133-2.853l-15.766,26.6a124.94,124.94,0,0,0,6.711,13.312q.886,1.561,1.9,3.273c-.041,0-.083.012-.123.016l-3.93,6.562c-5.324,9.387-8.9,31.477-3.533,46.149,30.836,84.322,45.387,84.15,45.7,85.133a4.811,4.811,0,0,0,1.514,2C3159.563,1372.994,3223.01,1391.077,3221.854,1382.989Z" transform="translate(-2929.316 -1143.607)"/><path class="i" d="M3108.665,1220.2a124.88,124.88,0,0,1-6.711-13.312l15.767-26.6q.538,1.467,1.132,2.853C3120.54,1189.946,3122.684,1206.508,3108.665,1220.2Z" transform="translate(-2930.858 -1143.607)"/><path class="g" d="M3068.583,1185.971s27.848-14.691,18.433-31.892-12.162-30.683-30.341-22.031-18.011,17.091-16.265,23.6S3061.1,1189.349,3068.583,1185.971Z" transform="translate(-2900.622 -1118.887)"/><path class="e" d="M3077.569,1145.4s-16.221-20.3-41.273-6.49c-17.159,9.459-17.617-10.54-17.406-13.924,0,0,13.508-6.717,27.6-13.246C3076.055,1098.033,3077.909,1140.286,3077.569,1145.4Z" transform="translate(-2890.529 -1109.016)"/><path class="i" d="M3029.489,1550.074c-7.341.978-18.008.99-29.735.646-31.916-.941-71.926-4.559-74.271,1.759-15.312,41.22-70.35,73.621-71.317,88.91.179.989-13.979-6.59-13.535-6.907,0,0,4.481-1.867,48.9-122.689,4.076-11.089,50.435-15.316,78.482-17.552,17.914-1.434,31.882-1.987,31.882-1.987a188.427,188.427,0,0,1,38.7-1.818C3058.167,1491.8,3056.8,1546.438,3029.489,1550.074Z" transform="translate(-2804.022 -1293.969)"/><path class="g" d="M2976.3,1504.54s13.862,5.01,19.758,2.062.737-10.564-3.194-10.564S2980.234,1496.187,2976.3,1504.54Z" transform="translate(-2869.875 -1296.853)"/><path class="j" d="M3173.323,1550.074c-7.342.978-18,.989-29.736.646,2.869-9.265,10.423-25.958-.71-38.33,0,0-12.112-16.655-21.842-19.369,17.912-1.432,22.7-.767,22.7-.767a188.513,188.513,0,0,1,38.7-1.818C3202,1491.8,3200.638,1546.436,3173.323,1550.074Z" transform="translate(-2940.118 -1293.969)"/><path class="k" d="M3216.919,1388.116l-.317.276-67.957,3.842a4.785,4.785,0,0,1-1.513-2c-.048-.156-.455-.28-1.221-.717-2.169-1.228-7.24-4.925-15.394-18.7-7.229-12.212-16.88-32.348-29.082-65.713-5.368-14.674-1.792-36.762,3.533-46.149a9.949,9.949,0,0,0,8.748-.2c11.72-5.686,31.359-19.18,32.169-18.919,20.651,7.191,36.687,36.818,47.855,80.5C3200.7,1347.859,3210.333,1364.336,3216.919,1388.116Z" transform="translate(-2929.316 -1172.506)"/><path class="l" d="M3199.577,1365.755l-33.305,31.26-20.342-31.341,7.473,66.216c8.154,13.777,13.225,17.474,15.394,18.7,18.822,1.064,46.141.639,48.329-10.537C3220.485,1422.88,3199.577,1365.755,3199.577,1365.755Z" transform="translate(-2952.201 -1233.582)"/><path class="g" d="M3142.175,1582.134c-61.1,14.554-118.179-21.57-120.3-11.257-6.564,31.957-39.726,78.269-40.5,83.8-.115.814-14.623,2.054-14.623,2.054s14.295-112.877,26.377-127.495c12.479-15.095,124.687-9.02,124.687-9.02C3161.574,1511.541,3169.322,1575.667,3142.175,1582.134Z" transform="translate(-2865.239 -1307.999)"/><path class="a" d="M3168.19,1498.535s29.861,30.916,33.177,33.956,16.032,1.935,16.032,1.935-13.912,1.843-13.912,4.238,8.844,27.825,12.161,27.825,28.009-1.474,33.906-4.422,13.636-35.749,1.658-61.915l-9.628-23.218S3227.929,1496.917,3168.19,1498.535Z" transform="translate(-2963.005 -1287.581)"/><g transform="translate(147.313 146.129)"><g transform="translate(11.232 0)"><path class="m" d="M3132.808,1409.962c-2.729-10.175-13.511-16.125-24.083-13.29a20.4,20.4,0,0,0-7.2,3.557l-4.165,3.022s-4.4,11.15-2.833,16.977c2.728,10.174,26.5,13.286,26.5,13.286l4.721-3.5,0,0A19.078,19.078,0,0,0,3132.808,1409.962Z" transform="translate(-3085.635 -1394.413)"/><ellipse class="n" cx="19.818" cy="19.074" rx="19.818" ry="19.074" transform="matrix(0.966, -0.259, 0.259, 0.966, 0, 10.267)"/></g><path class="o" d="M3094.739,1434.9a4.424,4.424,0,0,0-5.931-3.422c-1.2.444-33.065,20.385-33.065,20.385l6.816,8.439,30.918-22.072A3.669,3.669,0,0,0,3094.739,1434.9Z" transform="translate(-3055.743 -1411.508)"/></g><path class="g" d="M3177.117,1392.641c-14.378,14.367-80.34-26.536-80.34-26.536l7.463-12.991,43.026,10.045a226.236,226.236,0,0,1-25.192-48.786c-6.717-18.06-8.712-30.455-8.712-30.455-3.687-14.738,28.779-33.4,44.6-18.425,5.274,5,10.463,19.183,14.9,36.442C3181.721,1336.414,3186.7,1383.066,3177.117,1392.641Z" transform="translate(-2928.345 -1182.282)"/><path class="i" d="M3194.937,1326.8c-15.222,3.581-45.312,11.623-49,20.005,0,0,28.082-12.056,55.505,7.647Z" transform="translate(-2952.202 -1214.716)"/><path class="p" d="M3190.5,1302.81c-29.957-2.769-49.648,10.417-52.761,12.661-6.937-18.424-9-31.069-9-31.069-3.808-15.035,29.722-34.075,46.057-18.8C3180.241,1270.7,3185.911,1285.2,3190.5,1302.81Z" transform="translate(-2944.392 -1183.379)"/><g transform="translate(0 338.547)"><path class="a" d="M2822.576,1794.155h-7.54c-2.526-.4-4.391-1.128-6.981-1.467-3.934-.516-5.745,1.1-6.105,1.467a.978.978,0,0,0-.07.075h-32.03c-.806-1.15-.032-3.815.726-5.777a4.558,4.558,0,0,1,3-2.741c3.4-.983,10.093-1.859,16.224-7.411,3.45-3.117,16.66-11.463,16.66-11.463l.07-.016c.29.005,1.671.43,7.679,5.5,3.106,2.617,8.4-3.7,8.4-3.7a7.526,7.526,0,0,1,1.736,2.354,7.95,7.95,0,0,1,.688,4.917c-.478,2.886,1.064,8.25,2.3,11.877.747,2.2,1.375,3.757,1.375,3.757S2829.063,1793.343,2822.576,1794.155Z" transform="translate(-2769.509 -1766.822)"/><path class="o" d="M2859.19,1770.982c-1.8,1.269-5.6,3.767-8.12,4.095-3.4.446-9.765-8.239-9.765-8.239l.07-.016c.29.005,1.671.43,7.679,5.5,3.107,2.617,8.4-3.7,8.4-3.7A7.53,7.53,0,0,1,2859.19,1770.982Z" transform="translate(-2804.354 -1766.822)"/><path class="o" d="M2822.576,1813.914h-7.54c-2.526-.4-4.391-1.128-6.981-1.467-3.934-.516-5.745,1.1-6.105,1.467a.99.99,0,0,0-.07.075h-32.03c-.806-1.15-.032-3.816.726-5.777.973-.865,1.246,3.757,1.784,4.493s26.128.269,27.607-.807,5.912-2.956,12.091-1.478c5.38,1.284,13.307-2.01,15.269-2.886.747,2.2,1.375,3.756,1.375,3.756S2829.063,1813.1,2822.576,1813.914Z" transform="translate(-2769.509 -1786.582)"/></g><g transform="translate(64.052 337.05)"><path class="a" d="M2949.929,1792.74h-7.952c-2.663-.419-4.63-1.19-7.362-1.547-4.148-.544-6.058,1.156-6.438,1.547-.051.051-.073.079-.073.079h-33.778c-.851-1.212-.034-4.024.765-6.092a4.807,4.807,0,0,1,3.163-2.891c3.582-1.037,10.644-1.961,17.111-7.816,3.638-3.287,17.569-12.089,17.569-12.089l.074-.017c.306.005,1.762.453,8.1,5.8,3.276,2.76,8.858-3.9,8.858-3.9a7.945,7.945,0,0,1,1.83,2.482,8.385,8.385,0,0,1,.726,5.186c-.5,3.043,1.123,8.7,2.42,12.525.788,2.318,1.451,3.962,1.451,3.962S2956.77,1791.884,2949.929,1792.74Z" transform="translate(-2893.964 -1763.915)"/><path class="o" d="M2988.54,1768.3c-1.9,1.338-5.9,3.973-8.562,4.318-3.588.47-10.3-8.688-10.3-8.688l.074-.017c.306.005,1.762.453,8.1,5.8,3.276,2.76,8.858-3.9,8.858-3.9A7.942,7.942,0,0,1,2988.54,1768.3Z" transform="translate(-2930.711 -1763.915)"/><path class="o" d="M2949.929,1813.578h-7.952c-2.663-.419-4.63-1.19-7.362-1.547-4.148-.544-6.058,1.156-6.438,1.547-.051.051-.073.079-.073.079h-33.778c-.851-1.213-.034-4.024.765-6.092,1.026-.913,1.315,3.961,1.882,4.738s27.554.283,29.114-.85,6.234-3.117,12.751-1.559c5.673,1.354,14.033-2.12,16.1-3.044.788,2.318,1.451,3.962,1.451,3.962S2956.77,1812.722,2949.929,1813.578Z" transform="translate(-2893.964 -1784.753)"/></g><g transform="translate(134.76 164.708)"><path class="o" d="M3082.338,1444.275c-2.968-11.068-14.7-17.541-26.2-14.457a22.2,22.2,0,0,0-7.835,3.87l-4.531,3.287s-4.782,12.129-3.082,18.469c2.968,11.069,28.83,14.453,28.83,14.453l5.135-3.8,0,0A20.754,20.754,0,0,0,3082.338,1444.275Z" transform="translate(-3035.708 -1429.049)"/><path class="c" d="M3032.041,1461.52c-2.969-11.069,3.948-22.542,15.449-25.626s23.229,3.388,26.2,14.457-3.948,22.542-15.448,25.626S3035.009,1472.589,3032.041,1461.52Z" transform="translate(-3031.353 -1431.999)"/><g transform="translate(13.204 16.318)"><path class="q" d="M3073.562,1465.7a6.872,6.872,0,0,0-8.505-4.694,7.215,7.215,0,0,0-2.544,1.257l-1.471,1.067s-1.553,3.938-1,6c.963,3.594,9.36,4.692,9.36,4.692l1.667-1.235h0A6.739,6.739,0,0,0,3073.562,1465.7Z" transform="translate(-3058.423 -1460.756)"/><path class="r" d="M3070.753,1467.672a7,7,0,1,0-5.015,8.32A6.873,6.873,0,0,0,3070.753,1467.672Z" transform="translate(-3057.01 -1461.714)"/></g></g><g transform="translate(258.027 324.091)"><g transform="translate(15.786 3.311)"><g transform="translate(18.372)"><path class="c" d="M3374.862,1747.117a20.407,20.407,0,0,0-7.848-1.713l-5.14-.236s-10.391,5.972-12.805,11.5c-4.215,9.655,12.425,26.916,12.425,26.916l5.871.211v0a19.078,19.078,0,0,0,18.029-11.266C3389.608,1762.872,3384.893,1751.5,3374.862,1747.117Z" transform="translate(-3342.646 -1745.168)"/><path class="s" d="M3364.571,1746.913c-10.031-4.379-21.578-.1-25.794,9.552s.5,21.031,10.532,25.409,21.579.1,25.794-9.552S3374.6,1751.292,3364.571,1746.913Z" transform="translate(-3337.233 -1745.181)"/></g><path class="t" d="M3340.1,1769.894c-1.218-.4-38.558-4.695-38.558-4.695l.063,10.848,37.934,2.036a3.668,3.668,0,0,0,3.063-1.815A4.424,4.424,0,0,0,3340.1,1769.894Z" transform="translate(-3301.537 -1754.89)"/></g><path class="o" d="M3310.916,1740.854a22.2,22.2,0,0,0-8.538-1.863l-5.591-.257-.009.9a20.432,20.432,0,0,0-13.922,11.614c-4.584,10.5.545,22.879,11.457,27.642q1.025.448,2.068.785l-.008.853,6.387.23v0a20.754,20.754,0,0,0,19.613-12.255C3326.958,1757.994,3321.829,1745.618,3310.916,1740.854Z" transform="translate(-3275.87 -1738.734)"/><path class="c" d="M3300.6,1740.633c-10.912-4.764-23.475-.111-28.06,10.391s.544,22.879,11.457,27.643,23.475.111,28.06-10.392S3311.514,1745.4,3300.6,1740.633Z" transform="translate(-3270.864 -1738.748)"/><g transform="translate(13.348 13.409)"><path class="o" d="M3310.089,1765.478a7.213,7.213,0,0,0-2.771-.605l-1.816-.083s-3.67,2.109-4.522,4.062c-1.489,3.41,4.388,9.506,4.388,9.506l2.073.074v0a6.738,6.738,0,0,0,6.368-3.978A6.871,6.871,0,0,0,3310.089,1765.478Z" transform="translate(-3298.711 -1764.789)"/><path class="r" d="M3306.455,1765.405a6.742,6.742,0,1,0,3.719,8.974A6.873,6.873,0,0,0,3306.455,1765.405Z" transform="translate(-3296.799 -1764.794)"/></g></g></g><g transform="translate(41.699 412.09)"><path class="u" d="M2133.259,1437.855l-26.868-1.883a7.252,7.252,0,0,0-7.728,6.715s-.138,4.6-.391,11.72c-.067,1.84-.144,3.8-.233,5.95-.8,21.039-2.146,55.2-3.167,69.768-1.1,14.867-4.3,48.224-6.579,71.067-.212,2.137-.414,4.153-.613,6.107-1.027,10.26-1.761,17.221-1.761,17.221a7.252,7.252,0,0,0,6.715,7.728l26.869,1.883a7.254,7.254,0,0,0,7.728-6.716s.178-6.937.409-17.253c.076-1.963.1-4.052.132-6.264.624-22.958,1.62-56.469,2.658-71.28,1.025-14.627,4.935-48.487,7.448-69.407.216-2.2.484-4.271.674-6.1.86-7.013,1.422-11.524,1.422-11.524A7.252,7.252,0,0,0,2133.259,1437.855Z" transform="translate(-2085.901 -1435.954)"/><path class="k" d="M2121.507,1437.032l-15.117-1.06a7.252,7.252,0,0,0-7.728,6.715s-.138,4.6-.391,11.72c-.067,1.84-.144,3.8-.233,5.95-.8,21.039-2.146,55.2-3.167,69.768-1.1,14.867-4.3,48.224-6.579,71.067-.212,2.137-.414,4.153-.613,6.107-1.027,10.26-1.761,17.221-1.761,17.221a7.252,7.252,0,0,0,6.715,7.728l15.118,1.059a7.252,7.252,0,0,0,7.728-6.715s.179-6.937.409-17.253c.076-1.963.1-4.053.132-6.265.625-22.958,1.62-56.469,2.658-71.28,1.025-14.627,4.936-48.488,7.447-69.407.216-2.2.484-4.272.674-6.1.861-7.013,1.423-11.524,1.423-11.524A7.252,7.252,0,0,0,2121.507,1437.032Z" transform="translate(-2085.901 -1435.954)"/><g transform="translate(1.778 18.369)"><path class="a" d="M2110.46,1471.659a1.544,1.544,0,0,0-.742.071c-.067,1.84-.144,3.8-.233,5.95a1.708,1.708,0,0,0,.547.1l39.292,2.754c.216-2.2.484-4.271.674-6.1Z" transform="translate(-2099.125 -1471.646)"/><path class="a" d="M2089.969,1756.968l-.613,6.107a.779.779,0,0,0,.363.087l39.6,2.775c.076-1.963.1-4.052.132-6.264l-39.292-2.754A.226.226,0,0,0,2089.969,1756.968Z" transform="translate(-2089.356 -1610.1)"/></g></g><g transform="translate(112.203 350.858)"><path class="b" d="M2228.625,1316.979a.767.767,0,0,0-.767.767v83.919a.767.767,0,0,0,1.534,0v-83.919A.767.767,0,0,0,2228.625,1316.979Z" transform="translate(-2225.302 -1316.979)"/><path class="c" d="M2225.863,1479.166a2.981,2.981,0,0,0-2.972,2.972V1492.3a2.972,2.972,0,0,0,5.944,0v-10.161A2.981,2.981,0,0,0,2225.863,1479.166Z" transform="translate(-2222.891 -1395.695)"/></g><path class="c" d="M2242.938,1733.5a2.98,2.98,0,0,0-2.972,2.972v10.162a2.972,2.972,0,0,0,5.944,0v-10.162A2.98,2.98,0,0,0,2242.938,1733.5Z" transform="translate(-2118.975 -1168.277)"/><g transform="translate(115.626 175.111)"><path class="i" d="M2348.774,1130.337s-22.9,1.338-25.389,10.8c-3.97,15.086-7.679,50.244-7.679,50.244l-23.107-28.652-8.318,4.005s19.718,52.99,36.354,50.526S2348.774,1130.337,2348.774,1130.337Z" transform="translate(-2268.109 -1050.647)"/><path class="g" d="M2439.037,1223.08c-8.725-19.568-12.9-25.1-13.045-31.258-.116-4.869,2.285-10.122,6.948-23a48,48,0,0,0,2.323-9.312c3.688-24.833-10.672-51.679-19.6-53.507-2.483-.657-6.693-9.626-6.641-24.078l-1.117.22-18.794,3.722s.428,5.915.441,11.486c.013,4.635-.266,9.032-1.313,9.6-1.357.123-2.157.2-2.157.2s-15.67,21.763-16.989,42,12.549,29.033-.1,69.48C2356.071,1259.943,2443.858,1233.893,2439.037,1223.08Z" transform="translate(-2308.591 -1027.149)"/><path class="e" d="M2446.205,977.9c-4.169-2.551-10.827.5-10.827.5,2.3-3.236,10.7-2.178,10.7-2.178-16.733-3.561-20.227,7.138-20.515,8.139-12.138-10.953-31.57,12.4-31.57,12.4l27.886,36.964s2.544-5.88,5.9-4.045c5.24,2.862,15.373-8.72,12.134-23.958a40.287,40.287,0,0,0-1.237-4.531,9.032,9.032,0,0,0,3.478.86c3.049,0,7.654-7.778,8.276-10.392S2450.375,980.451,2446.205,977.9Z" transform="translate(-2321.358 -975.497)"/><path class="i" d="M2409.314,1086.07s.428,5.915.441,11.486c10.516-.3,16.076-9.89,18.353-15.208Z" transform="translate(-2328.793 -1027.356)"/><path class="e" d="M2418.888,1041.958s5.511-8.708,6.834-16.154c.945-5.316-1.764-25.021-21.565-22.183a26.9,26.9,0,0,0-11.156,4.218c-4.3,2.9-10.5,9.173-3.566,26.368l1.8,5.808Z" transform="translate(-2317.632 -989.011)"/><path class="g" d="M2394.676,1060.237s24.882.41,24.9-15.089,3.241-25.885-12.646-26.8-18.979,4.993-20.244,10.166S2388.2,1059.73,2394.676,1060.237Z" transform="translate(-2317.666 -996.247)"/><path class="g" d="M2385.723,1442.977c-3.521,19.942-6.1,34.891-6.1,34.891,10.417,42.724-37.5,108.811-37.5,108.811l-7.443-2.988s21.679-52.158,14.287-104.169c-10.454-73.554,3.36-122.839,3.36-122.839l44.236,14.27,2.062.665C2394.691,1392.457,2389.632,1420.8,2385.723,1442.977Z" transform="translate(-2292.569 -1160.502)"/><path class="i" d="M2448.584,1241.984c-4.663,12.881-7.064,18.135-6.948,23-14.864-23.015-41.713-26.487-41.713-26.487l50.983-5.828A48,48,0,0,1,2448.584,1241.984Z" transform="translate(-2324.235 -1100.314)"/><path class="g" d="M2458.472,1127.8s21.266,2.178,23.756,7.654c8.034,17.676,16.055,77.288,18.3,82.515s9.085,33.976,14.935,48.164l-7.468,2.24s-24.643-40.885-26.883-51.525-14.524-53.917-14.524-53.917Z" transform="translate(-2352.651 -1049.414)"/><path class="c" d="M2428.857,1177.316l.291,18.467a194.2,194.2,0,0,0-33.528-6.15,106.334,106.334,0,0,0-12.634-.351,53.491,53.491,0,0,0-14.222,2.214s-2.737-11.948-5.477-26.136q-.146-.766-.235-1.523c-1.583-13.5,10.409-24.527,5.369-29.925,0,0,4.651-2.594,15.341-3.834,0,0-8.4,14.811-7.654,18.545s33.23.374,35.47-1.68,5.787-17.78,5.787-17.78,12.2,1.237,17.127,5.351a49.742,49.742,0,0,0-6.187,10.443,25.772,25.772,0,0,0-1.606,5.16c-.87,4.649-3.173,13.5,2.053,20.472Z" transform="translate(-2306.269 -1050.077)"/><path class="i" d="M2422.582,1426.126c-3.931,20.837-4.51,25.661-8.419,47.836-24.273-42.37-20.7-53.437-20.7-53.437Z" transform="translate(-2321.009 -1191.487)"/><path class="g" d="M2499.52,1575.625l-7.261,2.581s-28.278-80.2-39.876-92.563c-22.414-23.885-55.4-128.036-55.4-128.036l44.576-14.468c6.612,6.41,11.985,18.4,16.313,32.524,10.921,35.634,15.159,84.811,15.73,91.931v.017a2.469,2.469,0,0,0,.706,1.436C2509.01,1507.672,2499.52,1575.625,2499.52,1575.625Z" transform="translate(-2322.806 -1153.928)"/><path class="k" d="M2394.235,1393.274l-7.284-1.9a71.733,71.733,0,0,0-10.794-2.655,73.125,73.125,0,0,0-19.281-.773c3.36-35.937,7.244-44.55,7.244-44.55l4.742-.254,12.41,25.7Z" transform="translate(-2303.343 -1153.928)"/><path class="a" d="M2412.365,1417.513l-7.284-1.9a71.791,71.791,0,0,0-10.794-2.655c-.489-6.9,2.288-14.293,5.115-19.874Z" transform="translate(-2321.472 -1178.167)"/><path class="i" d="M2506.831,1498.266c-23.343-18.25-41.377-79.4-41.377-79.4l25.647-12.53C2502.022,1441.969,2506.26,1491.146,2506.831,1498.266Z" transform="translate(-2356.04 -1184.6)"/><path class="k" d="M2372.867,1337.492s10.688,8.074,21.515,7.327,42.439-7.965,42.439-7.965,5.857,8.507,9.957,25.389a158.883,158.883,0,0,1,4.557,30.182s-37.414-4.668-52.349,3.172Z" transform="translate(-2311.104 -1150.878)"/><path class="e" d="M2411.259,1037.166c10.456,2.688,14.991-.114,14.991-.114a40,40,0,0,0-9.684-17.492c-3.9-4.106-21.818-4.413-22.372-3.585-1.63-1.4-4.534-2.409-8.374,2.245-5.768,6.992-.635,19.351-.635,19.351,2.368.276,2.926-7.849,4.167-11.8.913-2.9,3.907-5.868,5.426-7.232.5,1.837,5.514,19.207,18,24.98a58.054,58.054,0,0,1-9.984-12.192C2405.219,1034.081,2408.069,1036.345,2411.259,1037.166Z" transform="translate(-2316.061 -994.574)"/><path class="v" d="M2330.908,1819.9a.65.65,0,0,0-.049.053h-2.569a4.486,4.486,0,0,1,.68-.053Z" transform="translate(-2289.469 -1385.317)"/><g transform="translate(149.451 211.998)"><g transform="translate(10.527)"><path class="w" d="M2595.451,1396.9a13.181,13.181,0,0,0-16.314-9,13.826,13.826,0,0,0-4.879,2.41l-2.822,2.047s-2.978,7.553-1.919,11.5c1.848,6.892,17.952,9,17.952,9l3.2-2.37v0A12.923,12.923,0,0,0,2595.451,1396.9Z" transform="translate(-2566.415 -1387.416)"/><path class="q" d="M2590.064,1400.681a13.435,13.435,0,1,0-9.621,15.958A13.181,13.181,0,0,0,2590.064,1400.681Z" transform="translate(-2563.702 -1389.252)"/></g><path class="x" d="M2569.664,1413.788a3,3,0,0,0-4.018-2.317c-.816.3-22.4,13.808-22.4,13.808l4.617,5.718,20.944-14.952A2.485,2.485,0,0,0,2569.664,1413.788Z" transform="translate(-2543.247 -1398.996)"/></g><g transform="translate(0 85.308)"><path class="w" d="M2277.3,1146.189l-2.821-2.047a13.826,13.826,0,0,0-4.878-2.41,13.181,13.181,0,0,0-16.314,9,12.923,12.923,0,0,0,4.786,13.583l0,0,3.2,2.369s16.1-2.107,17.953-9C2280.279,1153.742,2277.3,1146.189,2277.3,1146.189Z" transform="translate(-2252.859 -1141.253)"/><path class="q" d="M2274.8,1145.516a12.93,12.93,0,1,0,9.62,15.958A13.18,13.18,0,0,0,2274.8,1145.516Z" transform="translate(-2255.382 -1143.089)"/><path class="x" d="M2283.243,1165.308a3,3,0,0,0-4.019,2.318,2.486,2.486,0,0,0,.855,2.256l20.945,14.952,4.617-5.717S2284.058,1165.609,2283.243,1165.308Z" transform="translate(-2265.649 -1152.833)"/></g><path class="i" d="M2280.444,1184.431s-7.7-9.551-2.156-14.48,12.734-3.492,12.939-.617-2.464,11.092-2.464,11.092Z" transform="translate(-2264.226 -1068.299)"/><path class="g" d="M2561.626,1394.166s2.271,5.351,4.635,6.845,5.726,5.1,5.1,7.965-1.245,7.343-4.232,7.343-9.957-13.192-10.827-15.681-1.618-2.987-1.618-2.987Z" transform="translate(-2399.348 -1178.694)"/><g transform="translate(140.947 223.533)"><path class="o" d="M2561.262,1420.142a14.339,14.339,0,0,0-17.747-9.794,15.032,15.032,0,0,0-5.307,2.622l-3.069,2.227s-3.24,8.217-2.089,12.511c2.011,7.5,19.531,9.791,19.531,9.791l3.478-2.577,0,0A14.059,14.059,0,0,0,2561.262,1420.142Z" transform="translate(-2529.674 -1409.828)"/><path class="c" d="M2555.4,1424.257a14.616,14.616,0,1,0-10.465,17.359A14.338,14.338,0,0,0,2555.4,1424.257Z" transform="translate(-2526.724 -1411.825)"/><g transform="translate(8.945 11.054)"><path class="y" d="M2555.25,1434.655a4.654,4.654,0,0,0-5.761-3.18,4.885,4.885,0,0,0-1.724.851l-1,.723.122.156a4.492,4.492,0,0,0-.8,3.906,4.654,4.654,0,0,0,5.762,3.179q.237-.063.463-.149l.115.148,1.129-.837h0A4.564,4.564,0,0,0,2555.25,1434.655Z" transform="translate(-2544.995 -1431.307)"/><path class="r" d="M2553.415,1435.991a4.745,4.745,0,1,0-3.4,5.636A4.656,4.656,0,0,0,2553.415,1435.991Z" transform="translate(-2544.104 -1431.955)"/></g></g><g transform="translate(16.442 96.842)"><path class="o" d="M2285.273,1173.979a14.338,14.338,0,0,1,17.747-9.793,15.039,15.039,0,0,1,5.308,2.622l3.069,2.226s3.24,8.217,2.088,12.511c-2.011,7.5-19.53,9.791-19.53,9.791l-3.478-2.577v0A14.059,14.059,0,0,1,2285.273,1173.979Z" transform="translate(-2284.807 -1163.664)"/><path class="c" d="M2308.674,1168.3a14.067,14.067,0,1,0,10.465,17.359A14.338,14.338,0,0,0,2308.674,1168.3Z" transform="translate(-2287.552 -1165.662)"/><g transform="translate(12.702 11.055)"><path class="y" d="M2318,1187.042l.122-.155-1-.723a4.874,4.874,0,0,0-1.724-.851,4.655,4.655,0,0,0-5.762,3.179,4.565,4.565,0,0,0,1.69,4.8h0l1.129.837.115-.148q.226.084.464.149a4.655,4.655,0,0,0,5.762-3.179A4.494,4.494,0,0,0,2318,1187.042Z" transform="translate(-2309.488 -1185.144)"/><path class="r" d="M2317.237,1186.649a4.567,4.567,0,1,0,3.4,5.636A4.655,4.655,0,0,0,2317.237,1186.649Z" transform="translate(-2310.379 -1185.792)"/></g></g><g transform="translate(18.9 415.589)"><path class="o" d="M2326.45,1801.988h-5.238c-1.755-.276-3.051-.784-4.85-1.02-2.733-.358-3.991.762-4.241,1.02a.624.624,0,0,0-.049.052H2289.82c-.561-.8-.023-2.651.5-4.014a3.168,3.168,0,0,1,2.084-1.9c2.36-.683,7.012-1.292,11.272-5.149,2.4-2.166,11.574-7.964,11.574-7.964l.049-.011c.2,0,1.161.3,5.336,3.823,2.158,1.818,5.836-2.569,5.836-2.569a5.239,5.239,0,0,1,1.206,1.635,5.527,5.527,0,0,1,.478,3.416c-.333,2.005.739,5.731,1.594,8.251.52,1.527.956,2.61.956,2.61S2330.957,1801.424,2326.45,1801.988Z" transform="translate(-2289.582 -1782.998)"/><path class="a" d="M2351.888,1785.888c-1.251.881-3.89,2.618-5.641,2.845-2.363.31-6.784-5.724-6.784-5.724l.049-.011c.2,0,1.161.3,5.335,3.823,2.158,1.818,5.836-2.569,5.836-2.569A5.239,5.239,0,0,1,2351.888,1785.888Z" transform="translate(-2313.791 -1782.998)"/><path class="a" d="M2326.45,1815.716h-5.238c-1.755-.276-3.051-.784-4.85-1.02-2.733-.358-3.991.762-4.241,1.02a.614.614,0,0,0-.049.052H2289.82c-.561-.8-.023-2.651.5-4.014.676-.6.866,2.61,1.24,3.121s18.154.187,19.18-.56,4.107-2.054,8.4-1.027c3.738.892,9.244-1.4,10.607-2.005.52,1.527.956,2.61.956,2.61S2330.957,1815.152,2326.45,1815.716Z" transform="translate(-2289.582 -1796.726)"/></g><g transform="translate(140.323 415.589)"><path class="o" d="M2562.379,1801.988h-5.238c-1.755-.276-3.051-.784-4.85-1.02-2.733-.358-3.991.762-4.242,1.02a.593.593,0,0,0-.048.052h-22.253c-.56-.8-.023-2.651.5-4.014a3.169,3.169,0,0,1,2.083-1.9c2.36-.683,7.012-1.292,11.272-5.149,2.4-2.166,11.575-7.964,11.575-7.964l.048-.011c.2,0,1.161.3,5.336,3.823,2.158,1.818,5.836-2.569,5.836-2.569a5.239,5.239,0,0,1,1.206,1.635,5.522,5.522,0,0,1,.478,3.416c-.332,2.005.739,5.731,1.594,8.251.519,1.527.956,2.61.956,2.61S2566.886,1801.424,2562.379,1801.988Z" transform="translate(-2525.51 -1782.998)"/><path class="a" d="M2587.817,1785.888c-1.251.881-3.89,2.618-5.641,2.845-2.364.31-6.784-5.724-6.784-5.724l.049-.011c.2,0,1.161.3,5.335,3.823,2.158,1.818,5.835-2.569,5.835-2.569A5.238,5.238,0,0,1,2587.817,1785.888Z" transform="translate(-2549.719 -1782.998)"/><path class="a" d="M2562.379,1815.716h-5.238c-1.755-.276-3.051-.784-4.85-1.02-2.733-.358-3.991.762-4.242,1.02a.584.584,0,0,0-.048.052h-22.253c-.56-.8-.023-2.651.5-4.014.676-.6.866,2.61,1.24,3.121s18.153.187,19.18-.56,4.107-2.054,8.4-1.027c3.738.892,9.245-1.4,10.608-2.005.519,1.527.956,2.61.956,2.61S2566.886,1815.152,2562.379,1815.716Z" transform="translate(-2525.51 -1796.726)"/></g><path class="o" d="M2460,1241.193a194.2,194.2,0,0,0-33.529-6.15,44,44,0,0,0,33.2-12.28.33.33,0,0,0,.037-.037Z" transform="translate(-2337.119 -1095.487)"/><path class="a" d="M2370.952,1339.9s9.7,7.1,19.968,7.391,46.366-8.543,46.366-8.543l-1.488-2.807s-39.566,10.583-48.845,7.447a64.52,64.52,0,0,1-14.774-6.938Z" transform="translate(-2310.174 -1150.434)"/></g></g></g></svg>