<svg xmlns="http://www.w3.org/2000/svg" width="566.603" height="510.794" viewBox="0 0 566.603 510.794"><defs><style>.a{fill:#aadcf3;}.b{fill:#7bc3e9;}.c{fill:#00898d;}.d{fill:#5dad72;}.e{fill:#31a9a3;}.f{fill:#161d2f;}.g{fill:#399e54;}.h{fill:#00a6b4;}.i{fill:#fff;}</style></defs><g transform="translate(-18.261 -61.174)"><path class="a" d="M501.039,234.422c3.944,13.276,6.052,27.424,16.052,37.4,19.313,19.261,52.554,9.081,76.738,12.783,50.921,7.795,74.892,46,73.1,95.7-.633,17.531-3.436,36.493-14.678,50.459-8.953,11.123-24.5,14.087-32.7,24.035-11.358,13.774-.372,19.173,8.7,30.4,10.763,13.317,17.483,31.54,14.007,49.026-10.168,51.136-86.719,75.472-130,83.842-70.341,13.6-141.278,10.918-211.775,2.149-60.295-7.5-136.585-14.863-150.627-99.783-7.272-43.972,10.719-83.286,35.7-109.812,22.282-23.655,67.105-29.7,76.928-62.776,7.9-26.606-3.551-54.233-1.047-81.251,9.457-102.063,178.214-126.3,231.649-50.032C496.858,221.95,499.157,228.087,501.039,234.422Z" transform="translate(-102.123 -110.655)"/><path class="b" d="M793.2,1811.282c0,12.909-78.21,23.374-174.683,23.374s-174.684-10.465-174.684-23.374,78.209-23.372,174.684-23.372S793.2,1798.373,793.2,1811.282Z" transform="translate(-312.851 -1262.688)"/><path class="c" d="M1454.47,1414.085H1293.488a18.169,18.169,0,0,1-3.52-3.132c-6.908-7.97-10.029-18.6-6.8-28.706,1.539-4.822,9.518-17.36,16.492-14.536-7.345-6.275-7.723-13.131-5.815-21.246,2.146-9.119,11.746-17.8,21-13.989-6.922-10.96-2.773-23.673,7.121-31.926,0,0,17.764-14.217,30.447,3.928-5.75-25.891,39.063-32.114,36.938-7.009,8.458-17.37,37.625-3.576,31.584,15.8,7.975-2.178,15.009,3.869,18.637,10.571,4.482,8.268,2.272,14.671-2.876,22.151,7.755-.772,16.528,5.321,17.736,13.281,1.746,11.516.2,15.137-5.475,21.844,8.634.1,12.171,10.312,12.6,18.07C1462.018,1407.4,1459.455,1411.437,1454.47,1414.085Z" transform="translate(-910.266 -901.713)"/><path class="d" d="M1006.726,1533.787a27.519,27.519,0,0,1-.68-11.148c.593-5.292,10.368-17.063,16.771-12.228-14.3-16.362,7.859-40.705,25.671-28.544-16.81-27.114,31.9-47.52,36.368-17.693,11.192-17.185,40.7-11.117,36.264,11.619,23.672-9.413,38.147,21.579,24.494,34.636,10.487,1.566,15.022,14.275,11.83,23.358Z" transform="translate(-713.45 -1021.415)"/><path class="e" d="M1744.962,1622.7h-77.3c-1.572-1.919-2.571-4.587-2.06-9.154.322-2.858,5.616-9.21,9.057-6.534-7.77-8.8,4.175-21.95,13.774-15.4-9.043-14.587,17.161-25.562,19.564-9.517,6.019-9.245,21.893-5.979,19.508,6.249,12.73-5.063,20.517,11.608,13.175,18.634,6.961,1.04,9.048,11.205,4.463,15.572Z" transform="translate(-1183.702 -1110.325)"/><path class="f" d="M649.625,1739.773H97.53a.717.717,0,0,0,0,1.434H649.625a.717.717,0,0,0,0-1.434" transform="translate(-65.477 -1228.373)"/><path class="g" d="M377.841,1497.223c.24-6.347-.378-11.638-3.964-17.026-7.65-11.5-20.271-16.62-31.089-24.545a47.655,47.655,0,0,1-3.991-3.336c.558,11.3-.053,21.775,3.061,32.838,3.087,10.97,10.494,19.279,20.434,24.958,3.26,1.861,8.157,4.39,11.863,8C376.831,1520.713,377.7,1500.831,377.841,1497.223Z" transform="translate(-237.977 -1023.458)"/><path class="f" d="M381.87,1525.466c8.391,6.513,14.328,16.956,18.141,28.256a107.972,107.972,0,0,1,5.513,33.273v.076a.716.716,0,0,0,1.433-.017v-.059a109.334,109.334,0,0,0-5.588-33.731c-3.875-11.464-9.9-22.151-18.621-28.93a.716.716,0,0,0-.878,1.132Z" transform="translate(-268.484 -1074.69)"/><path class="h" d="M544.862,1398.006c-.334-8.907.533-16.334,5.563-23.894,10.734-16.135,28.45-23.326,43.629-34.449a67.379,67.379,0,0,0,5.6-4.678c-.783,15.848.074,30.555-4.294,46.082-4.334,15.4-14.73,27.06-28.68,35.027-4.575,2.614-11.45,6.162-16.651,11.226C546.28,1430.974,545.054,1403.069,544.862,1398.006Z" transform="translate(-384.826 -939.817)"/><path class="f" d="M586.685,1437c-12.17,9.46-20.613,24.411-26.039,40.471a153.179,153.179,0,0,0-7.826,47.257v.083a.716.716,0,1,0,1.433-.011v-.072a151.748,151.748,0,0,1,7.751-46.8c5.365-15.895,13.716-30.6,25.56-39.8a.716.716,0,1,0-.878-1.131Z" transform="translate(-390.544 -1012.431)"/><path class="i" d="M1606.366,401.423H1486.893c-4.807-28.432,18.606-24.354,18.606-24.354-2.026-12.3,2.087-22.584,18.847-24.308,8.7-.9,18.2,7.666,19.609,14.221,17.445-6.555,26.144,2.907,26.144,2.907,4.312,2.542,6.262,8.946,8.123,13.456C1578.221,383.345,1600.684,380.912,1606.366,401.423Z" transform="translate(-1055.94 -239.587)"/><path class="i" d="M51.277,311.665H170.751c4.805-28.43-18.606-24.354-18.606-24.354,2.023-12.3-2.09-22.582-18.85-24.308-8.7-.9-18.2,7.666-19.606,14.223-17.446-6.556-26.144,2.906-26.144,2.906-4.312,2.544-6.262,8.949-8.123,13.456C79.423,293.587,56.959,291.157,51.277,311.665Z" transform="translate(-33.016 -175.603)"/><path class="i" d="M286.559,1012.389H406.034c4.805-28.43-18.607-24.354-18.607-24.354,2.025-12.3-2.089-22.582-18.848-24.309-8.7-.895-18.2,7.667-19.606,14.223-17.447-6.556-26.145,2.906-26.145,2.906-4.311,2.544-6.261,8.949-8.122,13.455C314.706,994.31,292.242,991.88,286.559,1012.389Z" transform="translate(-200.738 -675.117)"/></g></svg>