<svg xmlns="http://www.w3.org/2000/svg" width="18.549" height="24.732" viewBox="0 0 18.549 24.732"><defs><style>.a{opacity:0.28;}.b{fill:#050c44;}</style></defs><g class="a" transform="translate(-3)"><path class="b" d="M19.23,24.457H5.319A2.321,2.321,0,0,1,3,22.139V11.319A2.321,2.321,0,0,1,5.319,9H19.23a2.321,2.321,0,0,1,2.319,2.319v10.82A2.321,2.321,0,0,1,19.23,24.457ZM5.319,10.546a.774.774,0,0,0-.773.773v10.82a.774.774,0,0,0,.773.773H19.23A.774.774,0,0,0,20,22.139V11.319a.774.774,0,0,0-.773-.773Z" transform="translate(0 0.274)"/><path class="b" d="M17.593,10.82a.773.773,0,0,1-.773-.773V6.183a4.637,4.637,0,1,0-9.274,0v3.864a.773.773,0,1,1-1.546,0V6.183a6.183,6.183,0,1,1,12.366,0v3.864A.773.773,0,0,1,17.593,10.82Z" transform="translate(0.091)"/><path class="b" d="M12.061,17.122a2.061,2.061,0,1,1,2.061-2.061A2.063,2.063,0,0,1,12.061,17.122Zm0-2.576a.515.515,0,1,0,.515.515A.516.516,0,0,0,12.061,14.546Z" transform="translate(0.213 0.396)"/><path class="b" d="M12.023,20.13a.773.773,0,0,1-.773-.773V16.523a.773.773,0,1,1,1.546,0v2.834A.773.773,0,0,1,12.023,20.13Z" transform="translate(0.252 0.48)"/></g></svg>