<svg xmlns="http://www.w3.org/2000/svg" width="450.173" height="131.331" viewBox="0 0 450.173 131.331"><defs><style>.a{fill:#00e9c5;}.b{fill:#fff;}</style></defs><g transform="translate(0 -0.034)"><g transform="translate(0 0.034)"><path class="a" d="M52.835,2.121a10.677,10.677,0,0,0-6.368,9.765h0V86.224A3.694,3.694,0,0,1,41.7,89.759a39.759,39.759,0,0,1-28.339-38.05v-2.2c0-.414.053-.817.085-1.231v-.329c.1-1.061.244-2.123.435-3.184l.064-.34c.085-.456.18-.913.276-1.369a1.847,1.847,0,0,0,.053-.234c.255-1.061.541-2.123.881-3.184l.064-.212c.159-.5.329-.987.52-1.475h0a32.466,32.466,0,0,1,1.295-3.067l.085-.17c.478-1,.987-1.974,1.539-2.919v-.053c.255-.435.52-.86.785-1.284.064-.085.117-.17.17-.255.255-.393.52-.785.785-1.168l.106-.149c.3-.414.594-.828.9-1.231l.287-.361a46.446,46.446,0,0,1,4.415-4.84,26.693,26.693,0,0,1,2.123-1.773,4.437,4.437,0,0,0,.456-6.665l-3.248-3.248a4.426,4.426,0,0,0-5.9-.318,52.846,52.846,0,0,0-6.91,6.7h0l-.085.1c-.467.552-.923,1.061-1.369,1.677h0c-.435.541-.849,1.061-1.252,1.645l-.2.287c-.658,1.125-1.433,2.314-2.176,3.556l-.191.34c-.722,1.21-1.39,2.462-2.017,3.747-.064.117-.117.244-.18.371-.276.584-.552,1.178-.807,1.773l-.106.138c-.276.647-.541,1.305-.785,1.964l-.159.414c-.212.584-.425,1.178-.626,1.772l-.1.287c-.212.669-.414,1.348-.616,2.027l-.1.382c-.159.584-.308,1.168-.456,1.751a1.7,1.7,0,0,1-.106.446c-.149.69-.3,1.39-.425,2.123v.287c-.138.6-.244,1.284-.329,1.857a4.09,4.09,0,0,1-.074.52c-.1.711-.18,1.422-.244,2.123a1.741,1.741,0,0,0,0,.234C.17,47.611.127,48.259.1,48.917v2.76H0a53.154,53.154,0,0,0,43.442,52.273,3.715,3.715,0,0,1,3.067,3.641v20.081a3.683,3.683,0,0,0,3.683,3.694H56.1a3.694,3.694,0,0,0,3.694-3.694V107.59a3.672,3.672,0,0,1,2.972-3.577,53.005,53.005,0,0,0,27.935-14.7A53.854,53.854,0,0,0,98.92,78.7,53.175,53.175,0,0,0,69.234,1.059a23.1,23.1,0,0,0-16.4,1.061ZM89.092,68.988A39.812,39.812,0,0,1,64.532,89.8,3.683,3.683,0,0,1,59.8,86.256V20.907a6.368,6.368,0,0,1,8.8-5.869,39.749,39.749,0,0,1,20.5,53.876Z" transform="translate(0 -0.034)"/><path class="b" d="M152.266,93.769a13.05,13.05,0,0,1-2.017-.329,21.228,21.228,0,0,0-2.6-.159c-.594,0-1.571,0-1.953.541-.541.817-.382,4.564-.382,5.424h5.424c1.2,0,1.794.223,1.794,1.528V102.9c0,1.571-.382,2.059-1.953,2.059h-5.307v17.81c0,1.412-.212,2.441-1.9,2.441h-3.418c-1.465,0-1.624-.87-1.624-2.123V105.009H136.7c-1.189,0-1.306-.913-1.306-1.9v-2.346c0-1.9,1.528-1.528,2.94-1.528V97.112c0-2.282.053-4.5,1.4-6.368,2.229-3.046,5.869-3.184,9.34-3.184,1.061,0,3.8,0,4.5,1.061a2.049,2.049,0,0,1,.276,1.136v.382C153.89,91.211,153.89,93.769,152.266,93.769Zm11.123,1.624h-2.123c-1.953,0-2.876-.265-2.876-2.441v-1.9c0-1.73.711-2.388,2.388-2.388h2.558a2.123,2.123,0,0,1,2.123,2.388v1.9C165.554,94.47,165.066,95.393,163.389,95.393Zm0,29.857h-2.123c-1.953,0-2.876-.276-2.876-2.441V101.581c0-1.73.711-2.388,2.388-2.388h2.558a2.123,2.123,0,0,1,2.123,2.388v21.228C165.554,124.326,165.066,125.25,163.389,125.25Z" transform="translate(8.31 5.338)"/><path class="b" d="M180.691,125.259a52.788,52.788,0,0,1-7.759-.382c-1.624-.212-1.518-.976-1.518-2.494v-.976c0-1.189.106-2.494,1.571-2.494a25.541,25.541,0,0,1,2.823.318c1.847.17,3.747.276,5.647.276s2.717,0,2.717-2.006a2.876,2.876,0,0,0-.329-1.794c-.435-.541-5.211-1.847-6.082-2.123a31.332,31.332,0,0,1-3.089-1.252c-2.823-1.412-3.853-2.983-3.853-6.135,0-8.353,5.636-8.247,12.312-8.247,1.359,0,2.664,0,4.023.106,1.953.17,2.707.541,2.707,2.664,0,1.571.117,3.365-2.006,3.365-.923,0-1.9-.17-2.823-.223a38.979,38.979,0,0,0-4.341-.212c-2.059,0-3.184-.276-3.184,2.123a1.614,1.614,0,0,0,.265,1.061c.541.754,5.7,2.123,6.846,2.494,4.246,1.412,6.241,2.823,6.241,7.6C190.9,124.283,187.42,125.259,180.691,125.259Z" transform="translate(10.485 5.976)"/><path class="b" d="M201.625,95.329h-2.059c-1.953,0-2.876-.265-2.876-2.441v-1.9c0-1.73.7-2.388,2.388-2.388h2.547a2.123,2.123,0,0,1,2.123,2.388v1.9C203.8,94.406,203.313,95.329,201.625,95.329Zm0,29.857h-2.059c-1.953,0-2.876-.276-2.876-2.441V101.517c0-1.73.7-2.388,2.388-2.388h2.547a2.123,2.123,0,0,1,2.123,2.388v21.228C203.8,124.262,203.313,125.186,201.625,125.186Z" transform="translate(12.073 5.402)"/><path class="b" d="M226.983,125.109a44.94,44.94,0,0,1-4.617.212c-10.614,0-12.376-3.63-12.376-13.724s1.794-13.8,12.376-13.8a45.047,45.047,0,0,1,4.617.265c1.624.17,2.982,0,2.982,1.847v.106c0,1.359,0,4.246-1.953,4.246a15.107,15.107,0,0,1-2.176-.212,39.275,39.275,0,0,0-5.095-.435c-2.282,0-2.717.435-3.184,2.547a25.791,25.791,0,0,0-.435,5.434,42.63,42.63,0,0,0,.212,5.2c.223,2.441,1.061,2.717,3.428,2.717a40.106,40.106,0,0,0,5.148-.435,14.376,14.376,0,0,1,2.123-.212,1.5,1.5,0,0,1,1.295.541c.435.435.658,3.036.658,3.694C229.955,125,228.649,124.886,226.983,125.109Z" transform="translate(12.889 5.967)"/><path class="b" d="M254.42,124.621h-3.046c-1.242,0-1.571-.817-1.571-1.953a14.785,14.785,0,0,1-8.024,2.653c-5.307,0-7.769-2.876-7.769-8.088,0-5.912,3.534-7.918,8.852-8.491a46.455,46.455,0,0,1,6.888-.435c0-2.176.329-5.211-2.717-5.211a34.538,34.538,0,0,0-7.812,1.136,5.486,5.486,0,0,1-1.305.159c-1.889,0-1.571-1.9-1.571-3.248a2.006,2.006,0,0,1,1.518-2.282,37.414,37.414,0,0,1,8.905-1.061c2.6,0,5.912.435,7.759,2.494,2.123,2.388,2.059,5.753,2.059,8.788v13.193C256.585,123.857,256.044,124.621,254.42,124.621ZM249.8,113.169c-.87,0-1.783-.106-2.653-.106a24.488,24.488,0,0,0-3.418.159c-2.282.329-3.184,1.061-3.184,3.418,0,1.305.212,3.641,2.006,3.641a12.375,12.375,0,0,0,7.27-2.717Z" transform="translate(14.363 5.967)"/><path class="b" d="M267.066,125.229h-1.9c-1.953,0-2.876-.276-2.876-2.441V90.225c0-1.741.7-2.335,2.388-2.335h2.441a2.059,2.059,0,0,1,2.123,2.335v32.563C269.178,124.306,268.743,125.229,267.066,125.229Z" transform="translate(16.099 5.358)"/><path class="b" d="M292.262,125.109a44.661,44.661,0,0,1-4.617.212c-10.614,0-12.365-3.63-12.365-13.724s1.783-13.8,12.365-13.8a44.728,44.728,0,0,1,4.617.265c1.624.17,2.983,0,2.983,1.847v.106c0,1.359,0,4.246-1.953,4.246a14.953,14.953,0,0,1-2.123-.212,39.6,39.6,0,0,0-5.105-.435c-2.282,0-2.717.435-3.184,2.547a26.538,26.538,0,0,0-.435,5.434c0,1.73.064,3.471.223,5.2.212,2.441,1.061,2.717,3.418,2.717a40.259,40.259,0,0,0,5.158-.435,14.25,14.25,0,0,1,2.123-.212,1.528,1.528,0,0,1,1.305.541c.435.435.647,3.036.647,3.694C295.244,125,293.949,124.886,292.262,125.109Z" transform="translate(16.896 5.967)"/><path class="b" d="M312.2,125.322c-9.064,0-12.482-5.211-12.482-13.724s3.365-13.8,12.482-13.8,12.429,5.211,12.429,13.8S321.319,125.322,312.2,125.322Zm4.447-20.028c-.976-1.783-2.611-1.73-4.447-1.73s-3.481,0-4.458,1.73-1.061,4.4-1.061,6.3.106,4.606,1.061,6.294,2.664,1.677,4.458,1.677,3.471,0,4.447-1.677.976-4.458.976-6.294S317.572,106.981,316.649,105.293Z" transform="translate(18.396 5.967)"/><path class="b" d="M348.91,124.621h-3.046c-1.242,0-1.571-.817-1.571-1.953a14.785,14.785,0,0,1-8.035,2.653c-5.307,0-7.759-2.876-7.759-8.088,0-5.912,3.534-7.918,8.852-8.491a46.362,46.362,0,0,1,6.888-.435c0-2.176.329-5.211-2.717-5.211a34.537,34.537,0,0,0-7.812,1.136,5.49,5.49,0,0,1-1.306.159c-1.9,0-1.571-1.9-1.571-3.248a2.006,2.006,0,0,1,1.518-2.282,37.349,37.349,0,0,1,8.9-1.061c2.6,0,5.912.435,7.759,2.494,2.123,2.388,2.059,5.753,2.059,8.788v13.193C351.075,123.857,350.534,124.621,348.91,124.621Zm-4.617-11.452c-.87,0-1.794-.106-2.653-.106a24.483,24.483,0,0,0-3.418.159c-2.282.329-3.184,1.061-3.184,3.418,0,1.306.212,3.641,2.006,3.641a12.376,12.376,0,0,0,7.271-2.717Z" transform="translate(20.163 5.967)"/><path class="b" d="M372.983,125.109a44.94,44.94,0,0,1-4.617.212c-10.614,0-12.376-3.63-12.376-13.724s1.794-13.8,12.376-13.8a45.046,45.046,0,0,1,4.617.265c1.624.17,2.982,0,2.982,1.847v.106c0,1.359,0,4.246-1.953,4.246a15.106,15.106,0,0,1-2.176-.212,39.278,39.278,0,0,0-5.105-.435c-2.271,0-2.706.435-3.184,2.547a25.787,25.787,0,0,0-.435,5.434c0,1.73.053,3.471.212,5.2.223,2.441,1.061,2.717,3.418,2.717a40.1,40.1,0,0,0,5.158-.435,14.377,14.377,0,0,1,2.123-.212,1.507,1.507,0,0,1,1.295.541c.435.435.658,3.036.658,3.694C375.986,125,374.681,124.886,372.983,125.109Z" transform="translate(21.85 5.967)"/><path class="b" d="M400.918,125.229h-2.9c-1.571,0-1.953-1.061-1.953-2.441V108.895c0-.764.106-3.747-.382-4.246a2.251,2.251,0,0,0-1.741-.435,11.8,11.8,0,0,0-6.612,2.494v16.122c0,1.518-.435,2.441-2.123,2.441h-2.876c-1.465,0-1.953-.817-1.953-2.123V90.225c0-1.741.7-2.335,2.388-2.335h2.515a2.059,2.059,0,0,1,2.123,2.335v10.041a17.036,17.036,0,0,1,7.324-1.847c5.041,0,8.353,2.494,8.353,7.706v16.664C403.03,124.306,402.595,125.229,400.918,125.229Z" transform="translate(23.347 5.358)"/><path class="b" d="M417.423,103.921a6.994,6.994,0,0,1-5.392-1.985,8.119,8.119,0,0,1-1.9-5.933,8.119,8.119,0,0,1,1.9-5.933A6.994,6.994,0,0,1,417.423,88C422.6,88,425,90.739,425,95.834S422.73,103.921,417.423,103.921Zm4.33-12.3c-.743-1.422-2.675-1.719-4.129-1.719s-3.449.3-4.245,1.7a10.317,10.317,0,0,0,0,8.809c.785,1.4,2.813,1.709,4.245,1.709s3.333-.329,4.1-1.73a9.839,9.839,0,0,0,0-8.767Zm-1.274,8.321h-.743a.945.945,0,0,1-.839-.329l-2.059-2.473h-.265v2.218c0,.711-.658.584-1.157.584s-.669-.106-.669-.584V92.586c0-.456.265-.563.669-.563h2.314a2.738,2.738,0,0,1,2.176.563,3.183,3.183,0,0,1,.679,2.239,1.942,1.942,0,0,1-1.581,2.2L420.8,99.05a.786.786,0,0,1,.191.467c-.032.3-.3.382-.541.382Zm-2-6.336a3.089,3.089,0,0,0-.839-.074h-.35c-.308,0-.711-.074-.711.34v1.741H417.9c.743,0,.87-.149.87-.87C418.729,94.486,418.729,93.743,418.485,93.6Z" transform="translate(25.172 5.365)"/></g></g></svg>