<svg xmlns="http://www.w3.org/2000/svg" width="27" height="27" viewBox="0 0 27 27"><defs><style>.a{fill:#fbbd00;}.b{fill:#0f9d58;}.c{fill:#31aa52;}.d{fill:#3c79e6;}.e{fill:#cf2d48;}.f{fill:#eb4132;}</style></defs><g transform="translate(0 0)"><path class="a" d="M6.328,108.43a7.128,7.128,0,0,1,1.009-3.664v-4.551H2.786a13.507,13.507,0,0,0,0,16.43H7.337v-4.551A7.128,7.128,0,0,1,6.328,108.43Z" transform="translate(0 -94.93)"/><path class="b" d="M199.164,373.965,196,377.129l3.164,3.164a13.4,13.4,0,0,0,8.215-2.786v-4.547h-4.547A7.171,7.171,0,0,1,199.164,373.965Z" transform="translate(-185.664 -353.293)"/><path class="c" d="M57.374,325.477l-4.551,4.551a13.716,13.716,0,0,0,1.168,1.331,13.412,13.412,0,0,0,9.546,3.954v-6.328a7.175,7.175,0,0,1-6.163-3.508Z" transform="translate(-50.037 -308.313)"/><path class="d" d="M269.5,200.418a13.616,13.616,0,0,0-.221-2.446l-.119-.649H256v6.328h6.4a7.14,7.14,0,0,1-2.736,2.934l4.547,4.547a13.724,13.724,0,0,0,1.331-1.168A13.412,13.412,0,0,0,269.5,200.418Z" transform="translate(-242.5 -186.918)"/><path class="e" d="M204.235,8.429l.559.559,4.475-4.475-.559-.559A13.412,13.412,0,0,0,199.164,0L196,3.164l3.164,3.164A7.125,7.125,0,0,1,204.235,8.429Z" transform="translate(-185.664)"/><path class="f" d="M63.536,6.328V0A13.412,13.412,0,0,0,53.99,3.954a13.7,13.7,0,0,0-1.168,1.331l4.551,4.551A7.175,7.175,0,0,1,63.536,6.328Z" transform="translate(-50.036 0)"/></g></svg>