<svg xmlns="http://www.w3.org/2000/svg" width="165.099" height="20.674" viewBox="0 0 165.099 20.674"><defs><style>.a{fill:#110f0f;}</style></defs><g transform="translate(0 -0.1)"><g transform="translate(0 0.1)"><path class="a" d="M9.064,3.434a6.965,6.965,0,0,1-1.058-.177A11.609,11.609,0,0,0,6.6,3.171c-.32,0-.846,0-1.052.292a9.856,9.856,0,0,0-.2,2.928H8.269c.64,0,.966.114.966.818V8.352c0,.852-.206,1.115-1.052,1.115H5.324V19.08c0,.761-.12,1.315-1.024,1.315H2.453c-.783,0-.875-.469-.875-1.144V9.49H.7c-.646,0-.7-.5-.7-1.024V7.208c0-1.024.818-.818,1.578-.818V5.247a5.539,5.539,0,0,1,.761-3.431C3.54.174,5.5.1,7.371.1,7.943.1,9.413.1,9.8.672a1.144,1.144,0,0,1,.143.618v.126C9.939,2.033,9.939,3.434,9.064,3.434Zm5.993.881H13.948c-1.052,0-1.55-.149-1.55-1.321V1.976c0-.938.377-1.287,1.287-1.287h1.372A1.144,1.144,0,0,1,16.23,1.976V2.994C16.23,3.817,15.967,4.315,15.057,4.315Zm0,16.081H13.948c-1.052,0-1.55-.149-1.55-1.315V7.677c0-.938.377-1.287,1.287-1.287h1.372A1.144,1.144,0,0,1,16.23,7.677v11.4C16.23,19.9,15.967,20.4,15.057,20.4Z" transform="translate(0 -0.1)"/><path class="a" d="M40.7,25.176a28.439,28.439,0,0,1-4.18-.206c-.881-.114-.818-.526-.818-1.344V23.1c-.034-.64.057-1.344.846-1.344a12.524,12.524,0,0,1,1.521.177c1,.086,2.019.143,3.042.143s1.458,0,1.458-1.081a1.59,1.59,0,0,0-.172-.966,18.931,18.931,0,0,0-3.277-1.144,16.979,16.979,0,0,1-1.676-.686,3.177,3.177,0,0,1-2.076-3.305c0-4.5,3.042-4.443,6.639-4.443.732,0,1.435,0,2.162.057,1.052.091,1.464.3,1.464,1.435,0,.846.057,1.813-1.081,1.813-.5,0-1.024-.086-1.521-.12a21,21,0,0,0-2.339-.114c-1.109,0-1.716-.149-1.716,1.144a.841.841,0,0,0,.149.572c.292.406,3.071,1.144,3.683,1.344,2.287.761,3.363,1.521,3.363,4.095C46.2,24.65,44.308,25.176,40.7,25.176Z" transform="translate(-15.143 -4.531)"/><path class="a" d="M63.932,4.756H62.84c-1.052,0-1.55-.149-1.55-1.321V2.417c0-.938.383-1.287,1.287-1.287h1.378A1.144,1.144,0,0,1,65.1,2.417V3.435C65.127,4.258,64.836,4.756,63.932,4.756Zm0,16.081H62.84c-1.052,0-1.55-.149-1.55-1.315V8.118c0-.938.383-1.287,1.287-1.287h1.378A1.144,1.144,0,0,1,65.1,8.118v11.4C65.127,20.339,64.836,20.837,63.932,20.837Z" transform="translate(-26.24 -0.541)"/><path class="a" d="M83.7,25.034a24.018,24.018,0,0,1-2.482.114c-5.719,0-6.668-1.956-6.668-7.394s.966-7.434,6.668-7.434a24.069,24.069,0,0,1,2.482.143c.881.091,1.607.034,1.607,1v.063c0,.726,0,2.287-1.052,2.287a8.058,8.058,0,0,1-1.144-.114,21.25,21.25,0,0,0-2.751-.234c-1.23,0-1.458.234-1.716,1.372a13.9,13.9,0,0,0-.234,2.928,23.1,23.1,0,0,0,.114,2.808c.12,1.315.572,1.458,1.841,1.458a21.69,21.69,0,0,0,2.779-.234,7.675,7.675,0,0,1,1.144-.114.818.818,0,0,1,.7.292,5.449,5.449,0,0,1,.349,1.99C85.307,25.006,84.609,24.914,83.7,25.034Z" transform="translate(-31.917 -4.475)"/><path class="a" d="M109.571,24.771h-1.636c-.669,0-.846-.44-.846-1.052a8.006,8.006,0,0,1-4.329,1.43c-2.859,0-4.18-1.55-4.18-4.358,0-3.185,1.9-4.266,4.764-4.575a25.9,25.9,0,0,1,3.717-.234c0-1.172.172-2.808-1.464-2.808a18.609,18.609,0,0,0-4.209.612,2.7,2.7,0,0,1-.7.091c-1.024,0-.846-1.024-.846-1.756a1.075,1.075,0,0,1,.818-1.23,20.422,20.422,0,0,1,4.8-.572c1.4,0,3.185.234,4.18,1.344,1.144,1.287,1.109,3.1,1.109,4.735v7.114C110.744,24.359,110.452,24.771,109.571,24.771Zm-2.482-6.17c-.469-.029-.966-.057-1.435-.057a13.279,13.279,0,0,0-1.841.086c-1.23.177-1.716.572-1.716,1.841,0,.7.12,1.962,1.087,1.962a6.7,6.7,0,0,0,3.917-1.464Z" transform="translate(-42.205 -4.475)"/><path class="a" d="M129.4,20.528H128.35c-1.052,0-1.55-.149-1.55-1.315V1.667c0-.938.383-1.258,1.287-1.258H129.4a1.109,1.109,0,0,1,1.144,1.258V19.212C130.546,20.03,130.311,20.528,129.4,20.528Z" transform="translate(-54.287 -0.232)"/><path class="a" d="M149,25.034a24.138,24.138,0,0,1-2.488.114c-5.719,0-6.668-1.956-6.668-7.394s.966-7.434,6.668-7.434a24.183,24.183,0,0,1,2.488.143c.875.092,1.607.034,1.607,1v.063c0,.726,0,2.287-1.052,2.287a8.138,8.138,0,0,1-1.144-.114,21.159,21.159,0,0,0-2.745-.234c-1.23,0-1.464.234-1.716,1.372a13.9,13.9,0,0,0-.234,2.928c0,.932.029,1.87.12,2.808.114,1.315.572,1.458,1.841,1.458a21.605,21.605,0,0,0,2.774-.234,7.749,7.749,0,0,1,1.144-.114.806.806,0,0,1,.7.292,5.45,5.45,0,0,1,.355,1.99C150.6,25.006,149.9,24.914,149,25.034Z" transform="translate(-59.87 -4.475)"/><path class="a" d="M170.965,25.149c-4.884,0-6.725-2.808-6.725-7.394s1.813-7.434,6.725-7.434,6.7,2.808,6.7,7.434S175.9,25.149,170.965,25.149Zm2.4-10.785c-.526-.966-1.407-.938-2.4-.938s-1.87-.029-2.4.938A7.561,7.561,0,0,0,168,17.754a7.586,7.586,0,0,0,.572,3.391c.515.909,1.435.9,2.4.9s1.876.029,2.4-.9a7.512,7.512,0,0,0,.526-3.391,7.97,7.97,0,0,0-.5-3.391Z" transform="translate(-70.316 -4.475)"/><path class="a" d="M204.061,24.763h-1.636c-.675,0-.846-.44-.846-1.052a8.006,8.006,0,0,1-4.329,1.43c-2.859,0-4.18-1.55-4.18-4.358,0-3.185,1.9-4.266,4.764-4.575a25.906,25.906,0,0,1,3.717-.234c0-1.172.172-2.808-1.464-2.808a18.609,18.609,0,0,0-4.2.6,2.7,2.7,0,0,1-.7.091c-1.024,0-.846-1.024-.846-1.756a1.075,1.075,0,0,1,.818-1.23,20.4,20.4,0,0,1,4.792-.572c1.407,0,3.191.234,4.186,1.344,1.144,1.287,1.109,3.1,1.109,4.735V23.5C205.234,24.351,204.942,24.763,204.061,24.763Zm-2.453-6.17c-.469-.029-.966-.057-1.435-.057a13.233,13.233,0,0,0-1.841.086c-1.23.177-1.716.572-1.716,1.841,0,.7.12,1.962,1.087,1.962a6.7,6.7,0,0,0,3.906-1.464Z" transform="translate(-82.659 -4.467)"/><path class="a" d="M229.73,25.034a24.019,24.019,0,0,1-2.482.114c-5.719,0-6.668-1.956-6.668-7.394s.961-7.434,6.668-7.434a24.07,24.07,0,0,1,2.482.143c.881.091,1.607.034,1.607,1v.063c0,.726,0,2.287-1.052,2.287a8.058,8.058,0,0,1-1.144-.114,21.25,21.25,0,0,0-2.751-.234c-1.23,0-1.464.234-1.716,1.372a14.3,14.3,0,0,0-.229,2.928c0,.932.029,1.87.114,2.808.114,1.315.572,1.458,1.841,1.458a21.691,21.691,0,0,0,2.779-.234,7.674,7.674,0,0,1,1.144-.114.818.818,0,0,1,.7.292,5.449,5.449,0,0,1,.349,1.99C231.337,25.006,230.639,24.914,229.73,25.034Z" transform="translate(-94.437 -4.475)"/><path class="a" d="M256.014,20.528h-1.55c-.846,0-1.052-.572-1.052-1.315V11.727c0-.412.063-2.019-.2-2.287a1.213,1.213,0,0,0-.938-.234,6.376,6.376,0,0,0-3.568,1.344v8.664c0,.818-.234,1.315-1.144,1.315h-1.55c-.789,0-1.052-.44-1.052-1.172V1.667c0-.938.377-1.258,1.287-1.258h1.315a1.109,1.109,0,0,1,1.144,1.258v5.41a9.3,9.3,0,0,1,3.946-1c2.722,0,4.506,1.344,4.506,4.152v8.978C257.158,20.03,256.924,20.528,256.014,20.528Z" transform="translate(-104.875 -0.232)"/><path class="a" d="M278.583,9.076a3.786,3.786,0,0,1-2.911-1.069A4.4,4.4,0,0,1,274.648,4.8a4.38,4.38,0,0,1,1.024-3.191A3.769,3.769,0,0,1,278.589.533c2.8,0,4.089,1.475,4.089,4.22S281.442,9.076,278.583,9.076Zm2.333-6.628a2.434,2.434,0,0,0-2.23-.926,2.592,2.592,0,0,0-2.287.915,5.261,5.261,0,0,0-.526,2.362,5.243,5.243,0,0,0,.538,2.373,2.59,2.59,0,0,0,2.287.921,2.428,2.428,0,0,0,2.207-.932,5.032,5.032,0,0,0,.572-2.322,5.147,5.147,0,0,0-.56-2.39Zm-.692,4.489h-.4a.492.492,0,0,1-.446-.183l-1.1-1.332h-.149v1.2c0,.383-.349.32-.618.32s-.366-.057-.366-.32V2.992c0-.246.143-.3.366-.3h1.241a1.481,1.481,0,0,1,1.178.3,1.716,1.716,0,0,1,.355,1.235,1.047,1.047,0,0,1-.864,1.144l.966,1.087a.423.423,0,0,1,.1.252C280.5,6.886,280.361,6.938,280.224,6.938Zm-1.081-3.4a1.6,1.6,0,0,0-.446-.04H278.5c-.16,0-.383-.04-.383.183v.938h.726c.406,0,.469-.08.469-.469C279.3,4.015,279.3,3.615,279.143,3.541Z" transform="translate(-117.578 -0.281)"/></g></g></svg>