<svg xmlns="http://www.w3.org/2000/svg" width="23.963" height="18" viewBox="0 0 23.963 18"><defs><style>.a{opacity:0.28;}.b{fill:#050c44;}</style></defs><g class="a" transform="translate(0 -80.609)"><g transform="translate(0 80.609)"><path class="b" d="M21.857,80.609H2.106A2.217,2.217,0,0,0,0,82.918V96.3a2.217,2.217,0,0,0,2.106,2.309H21.857A2.217,2.217,0,0,0,23.963,96.3V82.918A2.217,2.217,0,0,0,21.857,80.609Zm-.275,1.539-.281.257L12.817,90.15a1.219,1.219,0,0,1-1.671,0L2.662,82.405l-.281-.257ZM1.4,83.26l6.912,6.311L1.4,94.614ZM21.857,97.07H2.106a.723.723,0,0,1-.688-.616L9.442,90.6l.805.735a2.53,2.53,0,0,0,3.468,0l.805-.735,8.024,5.855A.723.723,0,0,1,21.857,97.07Zm.7-2.455-6.912-5.044,6.912-6.311Z" transform="translate(0 -80.609)"/></g></g></svg>